<?xml version="1.0" standalone="no"?>
<!DOCTYPE svg PUBLIC "-//W3C//DTD SVG 20010904//EN"
 "http://www.w3.org/TR/2001/REC-SVG-20010904/DTD/svg10.dtd">
<svg version="1.0" xmlns="http://www.w3.org/2000/svg"
 width="200.000000pt" height="200.000000pt" viewBox="0 0 200.000000 200.000000"
 preserveAspectRatio="xMidYMid meet">
<metadata>
Created by potrace 1.14, written by Peter Selinger 2001-2017
</metadata>
<g transform="translate(0.000000,200.000000) scale(0.100000,-0.100000)"
fill="#000000" stroke="none">
<path d="M0 1000 l0 -1000 1000 0 1000 0 0 1000 0 1000 -1000 0 -1000 0 0
-1000z m630 320 l0 -50 -45 0 -45 0 0 50 0 50 45 0 45 0 0 -50z m0 -265 l0
-165 50 0 50 0 0 -40 0 -40 -165 0 -165 0 0 40 0 40 70 0 71 0 -3 123 -3 122
-67 3 -68 3 0 39 0 40 115 0 115 0 0 -165z m440 145 c58 -30 91 -85 97 -163 3
-38 1 -79 -7 -101 -43 -132 -212 -179 -314 -87 -101 92 -83 290 32 351 51 26
140 26 192 0z m280 0 c0 -20 0 -20 33 0 39 24 115 27 156 5 51 -26 61 -65 61
-239 l0 -156 -45 0 -45 0 0 130 c0 159 -11 190 -66 190 -79 0 -94 -33 -94
-201 l0 -119 -45 0 -45 0 0 205 0 205 45 0 c38 0 45 -3 45 -20z"/>
<path d="M911 1116 c-33 -36 -45 -89 -31 -147 14 -58 48 -89 97 -89 95 0 136
158 61 237 -30 32 -96 32 -127 -1z"/>
</g>
</svg>
