<?xml version="1.0" standalone="no"?>
<!DOCTYPE svg PUBLIC "-//W3C//DTD SVG 20010904//EN"
 "http://www.w3.org/TR/2001/REC-SVG-20010904/DTD/svg10.dtd">
<svg version="1.0" xmlns="http://www.w3.org/2000/svg"
 width="700.000000pt" height="700.000000pt" viewBox="0 0 700.000000 700.000000"
 preserveAspectRatio="xMidYMid meet">
<metadata>
Created by potrace 1.14, written by Peter Selinger 2001-2017
</metadata>
<g transform="translate(0.000000,700.000000) scale(0.100000,-0.100000)"
fill="#000000" stroke="none">
<path d="M2668 6915 c-2 -2 -34 -5 -73 -8 -259 -20 -594 -141 -830 -302 -55
-37 -102 -70 -105 -74 -3 -3 -26 -23 -52 -44 -152 -122 -327 -339 -436 -539
-36 -66 -114 -260 -134 -333 -12 -42 -14 -387 -13 -2135 1 -1147 5 -2111 9
-2143 4 -32 11 -69 16 -82 5 -14 7 -25 5 -25 -5 0 36 -112 62 -168 94 -204
320 -400 533 -461 25 -8 56 -17 70 -21 l25 -7 0 -244 0 -244 1755 0 1755 0 0
244 0 245 45 11 c198 52 388 183 507 351 93 131 142 260 161 429 4 33 7 998 6
2145 l-1 2085 -40 111 c-164 450 -483 811 -898 1015 -164 81 -233 107 -400
148 -180 45 -252 48 -1132 48 -458 0 -834 -1 -835 -2z m-139 -1776 c153 -49
274 -174 310 -323 13 -52 16 -150 6 -199 -25 -125 -124 -254 -239 -310 -177
-87 -380 -53 -518 85 -121 121 -158 273 -112 453 10 40 66 133 104 172 59 63
167 120 255 136 36 6 157 -2 194 -14z m2219 -11 c251 -93 366 -374 252 -613
-151 -316 -599 -343 -783 -48 -49 80 -68 145 -68 242 0 115 39 215 120 303
118 129 315 177 479 116z m-1123 -199 c54 -28 131 -111 166 -181 59 -117 59
-116 59 -787 0 -599 -1 -616 -20 -657 -21 -42 -50 -68 -103 -91 -39 -18 -416
-17 -458 1 -42 18 -89 63 -105 103 -22 51 -20 1235 1 1318 43 163 170 303 295
325 46 8 114 -5 165 -31z m870 -1886 c50 -26 80 -58 100 -105 13 -32 15 -123
15 -688 0 -565 -2 -656 -15 -688 -20 -47 -50 -79 -100 -105 -40 -20 -49 -20
-970 -21 -511 -1 -951 3 -977 8 -57 10 -114 56 -139 110 -17 39 -19 80 -19
687 0 356 3 661 6 678 4 17 24 51 45 75 66 74 18 71 1076 70 929 -1 938 -1
978 -21z"/>
</g>
</svg>
