<?xml version="1.0" encoding="UTF-8" standalone="no"?>
<!DOCTYPE svg PUBLIC "-//W3C//DTD SVG 1.1//EN" "http://www.w3.org/Graphics/SVG/1.1/DTD/svg11.dtd">
<svg xmlns="http://www.w3.org/2000/svg" version="1.1" viewBox="0.00 0.00 512.00 512.00">
<g stroke-width="2.00" fill="none" stroke-linecap="butt">
<path stroke="#161c1f" vector-effect="non-scaling-stroke" d="
  M 194.05 0.00
  Q 193.72 0.81 192.04 1.78"
/>
<path stroke="#4c6c78" vector-effect="non-scaling-stroke" d="
  M 192.04 1.78
  Q 189.60 3.54 187.53 3.89
  Q 179.34 5.25 170.53 7.29
  Q 166.25 8.29 162.52 10.23
  Q 157.43 12.89 152.21 15.63
  Q 142.77 20.60 133.79 28.53
  C 126.17 35.26 118.66 43.19 112.80 51.94
  Q 98.10 73.86 92.02 98.90
  Q 91.88 99.45 92.45 99.45
  L 149.41 99.53"
/>
<path stroke="#161c1f" vector-effect="non-scaling-stroke" d="
  M 149.41 99.53
  Q 153.55 100.36 154.88 99.58"
/>
<path stroke="#4c6c78" vector-effect="non-scaling-stroke" d="
  M 154.88 99.58
  L 353.95 99.56"
/>
<path stroke="#161c1f" vector-effect="non-scaling-stroke" d="
  M 353.95 99.56
  Q 356.97 100.17 357.77 99.61"
/>
<path stroke="#4c6c78" vector-effect="non-scaling-stroke" d="
  M 357.77 99.61
  L 417.27 99.48
  A 1.10 1.09 83.6 0 0 418.33 98.15
  Q 411.53 67.97 392.62 44.07
  C 389.22 39.78 385.34 36.21 381.53 32.33
  C 376.70 27.41 370.76 22.76 365.07 19.15
  Q 357.48 14.34 344.73 8.80
  Q 344.61 8.75 344.66 8.63
  L 344.77 8.38
  Q 344.81 8.29 344.90 8.32
  Q 365.09 15.69 380.10 29.42
  C 394.87 42.95 405.50 59.23 413.13 77.97
  Q 415.38 83.51 416.84 88.95
  Q 418.32 94.45 419.65 100.05
  Q 419.83 100.80 420.13 101.55"
/>
<path stroke="#4c2819" vector-effect="non-scaling-stroke" d="
  M 420.13 101.55
  Q 419.86 102.13 419.09 102.26"
/>
<path stroke="#4c6c78" vector-effect="non-scaling-stroke" d="
  M 419.09 102.26
  Q 418.50 101.71 418.00 101.70
  Q 396.85 101.46 358.50 101.72
  Q 358.16 101.73 357.89 102.00"
/>
<path stroke="#413136" vector-effect="non-scaling-stroke" d="
  M 357.89 102.00
  Q 357.44 102.10 356.26 101.71"
/>
<path stroke="#4c6c78" vector-effect="non-scaling-stroke" d="
  M 356.26 101.71
  Q 356.09 101.48 356.00 101.66
  Q 252.35 101.66 155.35 101.74
  A 1.27 1.27 0.0 0 0 154.08 102.98
  Q 153.56 119.80 153.97 137.06
  Q 153.98 137.44 153.76 137.75
  Q 153.62 137.96 153.63 138.20
  Q 153.66 138.95 154.29 138.53
  Q 166.74 130.26 180.11 132.93
  Q 191.88 135.29 199.74 145.14
  Q 206.06 153.06 206.81 163.80
  Q 207.76 177.33 198.00 188.59
  Q 196.65 190.15 195.00 191.43
  C 192.60 193.29 190.50 195.35 187.67 196.45
  Q 174.51 201.52 162.36 197.54
  Q 160.25 196.84 158.08 195.62
  Q 156.09 194.49 153.97 193.71"
/>
<path stroke="#413136" vector-effect="non-scaling-stroke" d="
  M 153.97 193.71
  Q 153.14 193.20 152.36 192.22"
/>
<path stroke="#4c6c78" vector-effect="non-scaling-stroke" d="
  M 152.36 192.22
  Q 148.15 188.15 147.09 186.92
  Q 140.74 179.57 139.97 167.63
  C 139.71 163.49 140.65 158.20 141.92 154.23
  C 143.67 148.76 148.06 143.71 152.40 139.60
  A 1.09 1.08 68.5 0 0 152.74 138.81
  L 152.95 102.27
  A 0.54 0.53 90.0 0 0 152.42 101.73
  Q 123.26 101.69 92.00 101.72
  Q 91.40 101.72 91.27 102.20"
/>
<path stroke="#413136" vector-effect="non-scaling-stroke" d="
  M 91.27 102.20
  Q 90.92 102.04 90.51 102.20"
/>
<path stroke="#4c6c78" vector-effect="non-scaling-stroke" d="
  M 90.51 102.20
  Q 89.98 101.37 89.99 100.49
  Q 89.99 99.98 90.32 99.59
  Q 91.18 98.58 91.47 97.37
  C 97.28 73.58 110.02 49.53 128.25 32.23
  Q 142.38 18.82 158.73 11.07
  C 160.68 10.15 162.71 9.52 164.52 8.31
  Q 166.67 6.87 164.18 7.59
  Q 141.30 14.17 122.14 27.89
  C 98.68 44.70 81.71 69.33 73.62 96.90
  C 73.04 98.89 72.46 101.78 72.44 103.50
  Q 72.26 119.65 72.42 135.78"
/>
<path stroke="#29211d" vector-effect="non-scaling-stroke" d="
  M 72.42 135.78
  L 72.05 142.68
  A 0.67 0.67 0.0 0 1 71.17 143.28
  Q 70.86 143.18 70.88 142.94
  Q 70.92 142.25 70.61 142.87
  Q 70.47 143.16 70.35 143.29"
/>
<path stroke="#161c1f" vector-effect="non-scaling-stroke" d="
  M 186.02 1.43
  Q 188.24 2.45 190.47 0.45"
/>
<path stroke="#507d27" vector-effect="non-scaling-stroke" d="
  M 196.11 177.52
  Q 196.43 178.12 196.44 178.88
  Q 196.50 182.58 196.46 185.50
  Q 196.42 188.12 198.07 186.09
  Q 201.81 181.53 203.86 174.90
  Q 205.91 168.29 204.28 161.56
  C 203.63 158.88 204.04 156.49 202.87 153.88
  Q 197.83 142.64 187.58 137.69
  Q 183.96 135.95 179.64 135.86
  Q 170.90 135.67 163.90 136.29
  C 159.64 136.67 148.60 142.69 148.55 148.61
  Q 148.51 152.17 148.22 156.30
  A 0.57 0.57 0.0 0 0 149.11 156.81
  Q 151.92 154.90 155.00 155.88
  A 1.95 1.94 4.7 0 1 156.33 157.44
  C 156.64 159.51 155.99 162.26 153.83 163.10
  Q 151.70 163.93 150.47 162.50
  Q 148.54 160.27 148.57 163.22
  Q 148.67 172.08 148.51 180.53
  Q 148.43 184.44 148.59 185.07
  C 149.38 188.22 152.48 187.60 155.07 187.77
  Q 155.66 187.81 155.85 188.37
  C 156.18 189.36 156.18 190.53 156.67 191.42
  C 158.45 194.67 161.82 195.53 165.27 195.65
  Q 172.28 195.91 179.17 195.68
  C 185.33 195.48 189.21 194.11 193.51 190.01
  Q 194.32 189.23 193.20 189.25
  L 171.99 189.63
  A 1.16 1.16 0.0 0 1 170.81 188.48
  L 170.73 177.48
  A 0.79 0.79 0.0 0 1 171.52 176.69
  L 194.83 176.75
  Q 195.69 176.75 196.11 177.52"
/>
<path stroke="#73457e" vector-effect="non-scaling-stroke" d="
  M 145.38 151.54
  Q 143.63 153.84 142.89 156.61
  Q 140.60 165.22 142.51 174.30
  Q 143.27 177.89 145.81 181.17
  Q 146.70 182.32 146.72 180.87
  Q 146.89 166.97 146.68 152.04
  Q 146.68 151.61 146.36 151.39
  A 0.72 0.72 0.0 0 0 145.38 151.54"
/>
<path stroke="#68777d" vector-effect="non-scaling-stroke" d="
  M 154.14 157.50
  L 152.26 157.13
  A 0.72 0.72 0.0 0 0 151.42 157.69
  L 151.21 158.73
  A 2.78 1.40 -78.8 0 0 152.04 161.73
  L 152.59 161.84
  A 2.78 1.40 -78.8 0 0 154.51 159.39
  L 154.71 158.35
  A 0.72 0.72 0.0 0 0 154.14 157.50"
/>
<path stroke="#68777d" vector-effect="non-scaling-stroke" d="
  M 192.87 187.13
  L 194.35 186.84
  Q 194.75 186.76 194.79 186.35
  L 195.31 179.97
  A 0.76 0.76 0.0 0 0 194.47 179.15
  L 193.31 179.27"
/>
<path stroke="#2a3174" vector-effect="non-scaling-stroke" d="
  M 193.31 179.27
  Q 191.16 178.80 187.75 178.80
  Q 179.24 178.78 172.82 178.92
  Q 172.19 178.93 172.20 179.56
  L 172.33 186.73
  Q 172.35 187.45 173.06 187.44
  L 192.87 187.13"
/>
<path stroke="#8fa7f0" vector-effect="non-scaling-stroke" d="
  M 193.31 179.27
  Q 193.91 183.14 192.87 187.13"
/>
<path stroke="#161c1f" vector-effect="non-scaling-stroke" d="
  M 320.75 0.77
  Q 320.64 1.06 319.51 0.84
  Q 318.27 0.61 318.29 2.24"
/>
<path stroke="#608696" vector-effect="non-scaling-stroke" d="
  M 318.29 2.24
  Q 317.14 0.81 316.06 1.12
  Q 315.05 1.40 316.09 1.49
  C 317.89 1.65 318.32 3.23 319.62 4.20
  C 322.20 6.14 324.89 7.94 327.03 10.38
  Q 336.09 20.72 340.59 30.99
  Q 346.85 45.26 348.01 49.74
  Q 354.41 74.45 357.77 99.61"
/>
<path stroke="#608696" vector-effect="non-scaling-stroke" d="
  M 353.95 99.56
  Q 356.69 99.93 356.45 98.29
  Q 353.93 80.80 350.30 63.51
  Q 346.39 44.87 337.84 27.87
  C 333.42 19.08 326.99 10.39 318.39 4.86
  Q 316.07 3.37 313.23 3.13
  Q 307.45 2.63 301.49 2.60
  C 283.09 2.49 265.34 2.89 247.24 2.81
  Q 230.06 2.74 211.50 2.61
  Q 204.10 2.55 197.40 2.97
  C 193.25 3.22 188.46 7.81 185.67 10.70
  Q 175.59 21.17 169.96 34.31
  Q 169.77 34.76 166.59 42.72
  Q 164.05 49.10 163.47 51.25
  Q 156.99 75.08 154.88 99.58"
/>
<path stroke="#608696" vector-effect="non-scaling-stroke" d="
  M 149.41 99.53
  Q 151.43 99.63 152.92 99.06
  Q 153.36 98.89 153.41 98.43
  Q 155.84 77.85 160.37 59.07
  Q 163.74 45.11 170.75 30.14
  C 175.41 20.19 182.27 11.61 190.50 4.50
  Q 192.02 3.18 192.04 1.78"
/>
<path stroke="#413136" vector-effect="non-scaling-stroke" d="
  M 440.67 108.70
  L 440.43 409.73"
/>
<path stroke="#68777d" vector-effect="non-scaling-stroke" d="
  M 385.60 512.00
  L 385.73 475.65
  A 0.53 0.53 0.0 0 0 385.17 475.12
  Q 379.78 475.39 375.23 475.40
  Q 260.36 475.54 145.05 475.48
  Q 135.61 475.47 126.53 475.11
  Q 125.43 475.07 125.43 476.17
  L 125.42 512.00"
/>
<path stroke="#413136" vector-effect="non-scaling-stroke" d="
  M 122.86 475.57
  Q 123.69 473.43 121.64 473.54"
/>
<path stroke="#29211d" vector-effect="non-scaling-stroke" d="
  M 70.31 375.53
  Q 71.05 375.60 71.18 375.54
  Q 72.20 374.97 72.21 376.14
  Q 72.29 389.73 72.23 403.49"
/>
<path stroke="#4c6c78" vector-effect="non-scaling-stroke" d="
  M 72.23 403.49
  Q 72.85 404.71 72.51 406.76
  A 0.96 0.95 -85.4 0 0 73.45 407.87
  L 89.22 407.82"
/>
<path stroke="#413136" vector-effect="non-scaling-stroke" d="
  M 89.22 407.82
  L 91.52 408.14"
/>
<path stroke="#4c6c78" vector-effect="non-scaling-stroke" d="
  M 91.52 408.14
  Q 95.70 413.67 101.63 417.67
  C 113.51 425.66 126.81 431.20 141.01 434.92
  Q 146.38 436.32 151.76 437.64"
/>
<path stroke="#413136" vector-effect="non-scaling-stroke" d="
  M 151.76 437.64
  Q 152.09 437.73 152.22 437.48
  Q 152.30 437.34 152.23 437.23
  Q 152.15 437.10 152.30 437.10
  Q 152.72 437.11 153.11 437.51"
/>
<path stroke="#4c6c78" vector-effect="non-scaling-stroke" d="
  M 153.11 437.51
  Q 154.39 438.21 155.24 438.37
  C 161.03 439.50 167.15 440.67 172.97 440.82
  Q 179.84 440.99 186.35 441.00
  Q 258.42 441.06 331.51 440.98
  Q 344.60 440.97 356.74 438.28
  A 0.88 0.87 78.3 0 0 357.41 437.25
  Q 356.91 434.75 356.91 432.33
  Q 356.90 313.40 356.76 193.87
  A 0.23 0.23 0.0 0 0 356.41 193.67
  C 354.07 195.07 352.23 196.66 349.41 197.38
  Q 342.97 199.03 340.76 199.23
  Q 329.67 200.22 321.24 195.16
  Q 303.25 184.34 304.37 162.84
  Q 304.82 154.21 310.84 146.20
  Q 321.47 132.03 339.27 132.29
  Q 348.35 132.43 356.80 138.52"
/>
<path stroke="#413136" vector-effect="non-scaling-stroke" d="
  M 356.80 138.52
  Q 357.20 138.06 358.08 138.80"
/>
<path stroke="#4c6c78" vector-effect="non-scaling-stroke" d="
  M 358.08 138.80
  C 365.10 145.57 369.94 152.39 370.97 162.31
  Q 372.81 180.04 359.21 191.57
  C 358.36 192.30 358.06 193.04 358.06 194.15
  Q 357.79 324.80 358.14 431.18
  Q 358.15 433.87 358.30 437.00
  Q 358.35 437.97 359.30 437.74
  Q 364.01 436.58 368.70 435.44
  Q 381.78 432.26 396.06 425.53
  C 402.49 422.50 408.17 418.66 413.73 414.24
  Q 417.15 411.52 419.32 408.55"
/>
<path stroke="#4c2819" vector-effect="non-scaling-stroke" d="
  M 419.32 408.55
  L 420.38 407.91"
/>
<path stroke="#4c6c78" vector-effect="non-scaling-stroke" d="
  M 420.38 407.91
  L 437.79 407.73
  Q 438.30 407.73 438.30 407.22
  Q 438.02 260.63 438.27 107.97
  C 438.28 102.81 437.89 97.62 436.20 92.69
  Q 420.45 46.62 380.19 22.06
  Q 369.53 15.56 356.20 10.59
  Q 351.15 8.71 345.56 7.77
  Q 340.10 6.86 334.62 6.12
  Q 329.56 5.44 318.29 2.24"
/>
<path stroke="#507d27" vector-effect="non-scaling-stroke" d="
  M 356.43 187.66
  C 358.85 187.40 362.65 188.32 362.58 184.34
  Q 362.38 173.01 362.45 162.07
  Q 362.46 161.13 361.66 161.63
  C 359.72 162.84 356.17 164.74 354.95 161.33
  Q 353.54 157.36 357.09 154.94
  A 0.86 0.85 52.8 0 1 358.23 155.10
  Q 359.78 156.94 362.31 157.18
  A 0.34 0.34 0.0 0 0 362.67 156.73
  L 362.01 154.79
  Q 361.89 154.43 361.97 154.05
  Q 362.51 151.67 362.88 149.08
  C 363.63 143.96 353.19 138.08 349.43 136.58
  Q 348.35 136.15 347.30 136.10
  Q 339.42 135.71 329.98 136.08
  Q 326.08 136.23 323.27 137.72
  C 316.53 141.29 311.76 146.82 308.48 153.69
  C 307.43 155.88 307.56 158.12 306.96 160.37
  C 305.17 167.15 306.36 173.89 309.72 180.38
  Q 314.34 189.33 323.07 194.08
  Q 325.28 195.28 327.49 195.45
  Q 337.63 196.22 349.48 195.29
  C 352.64 195.05 354.91 191.12 355.55 188.43
  Q 355.71 187.73 356.43 187.66"
/>
<path stroke="#73457e" vector-effect="non-scaling-stroke" d="
  M 364.22 151.20
  L 364.28 181.70
  A 0.03 0.03 0.0 0 0 364.31 181.73
  L 364.36 181.73
  A 13.67 4.64 89.9 0 0 368.97 168.06
  L 368.97 164.84
  A 13.67 4.64 89.9 0 0 364.30 151.17
  L 364.25 151.17
  A 0.03 0.03 0.0 0 0 364.22 151.20"
/>
<path stroke="#68777d" vector-effect="non-scaling-stroke" d="
  M 357.5187 161.8343
  A 2.48 1.17 86.1 0 0 358.5173 159.2804
  A 2.48 1.17 86.1 0 0 357.1813 156.8857
  A 2.48 1.17 86.1 0 0 356.1827 159.4396
  A 2.48 1.17 86.1 0 0 357.5187 161.8343"
/>
<path stroke="#413136" vector-effect="non-scaling-stroke" d="
  M 168.31 473.21
  Q 169.16 473.14 169.25 473.27"
/>
<path stroke="#4c6c78" vector-effect="non-scaling-stroke" d="
  M 169.25 473.27
  Q 256.95 473.09 344.75 472.99
  Q 348.05 472.99 350.94 472.92
  Q 354.03 472.84 357.01 472.04
  Q 364.76 469.97 367.82 468.59
  Q 371.13 467.09 379.96 461.77
  Q 386.66 457.74 390.79 454.04
  Q 396.12 449.26 401.14 443.86
  Q 405.51 439.15 409.25 432.36
  Q 414.01 423.71 417.59 416.32
  Q 418.30 414.86 418.31 413.21
  Q 418.33 411.43 417.10 412.72
  Q 415.13 414.80 413.17 416.20
  C 407.40 420.29 401.92 423.75 395.51 426.80
  Q 378.20 435.03 359.31 438.65
  A 0.55 0.54 -12.2 0 0 358.88 439.31
  Q 359.67 442.84 360.87 446.22
  Q 364.04 455.18 368.77 466.63
  Q 368.83 466.78 368.68 466.84
  L 368.43 466.95
  Q 368.23 467.03 368.15 466.84
  Q 362.43 453.87 357.91 440.06
  Q 357.74 439.55 357.21 439.63
  Q 349.67 440.82 342.69 441.62
  Q 342.24 441.67 342.04 442.09"
/>
<path stroke="#413136" vector-effect="non-scaling-stroke" d="
  M 342.04 442.09
  L 341.20 441.95"
/>
<path stroke="#4c6c78" vector-effect="non-scaling-stroke" d="
  M 341.20 441.95
  L 169.33 441.95"
/>
<path stroke="#413136" vector-effect="non-scaling-stroke" d="
  M 169.33 441.95
  Q 168.47 441.94 168.13 441.64"
/>
<path stroke="#4c6c78" vector-effect="non-scaling-stroke" d="
  M 168.13 441.64
  L 153.84 439.27
  A 0.64 0.63 -76.3 0 0 153.13 439.71
  Q 148.92 453.53 143.48 465.73
  Q 141.99 469.06 142.76 465.51
  Q 142.99 464.43 143.92 462.30
  Q 148.87 450.96 151.81 440.26
  Q 152.26 438.63 150.60 438.31
  Q 124.09 433.20 101.48 418.83
  Q 97.33 416.20 90.53 409.53
  Q 90.06 409.07 89.41 409.07
  L 73.32 409.09
  Q 72.42 409.09 72.51 409.98
  Q 72.93 414.71 73.58 419.19
  Q 74.64 426.59 78.19 435.03
  C 85.88 453.32 104.41 467.96 124.04 471.77
  C 133.46 473.60 142.80 473.49 152.27 473.61
  Q 154.01 473.63 152.35 473.08
  Q 149.46 472.12 146.18 470.99
  Q 143.30 469.99 140.47 468.24
  C 132.95 463.59 125.22 460.10 118.61 454.00
  Q 110.80 446.79 105.54 439.57
  Q 101.17 433.58 94.06 419.29
  C 93.14 417.45 92.56 415.62 92.08 413.67
  Q 91.43 411.02 92.64 413.47
  C 93.62 415.44 93.90 417.50 94.99 419.49
  Q 98.95 426.74 103.00 434.13
  Q 104.93 437.63 107.69 440.92
  Q 113.71 448.12 119.36 453.37
  C 125.33 458.93 132.32 462.42 139.26 466.27
  Q 145.42 469.68 150.74 471.19
  Q 159.38 473.63 168.31 473.21"
/>
<path stroke="#8b9bad" vector-effect="non-scaling-stroke" d="
  M 168.13 441.64
  L 168.31 473.21"
/>
<path stroke="#8b9bad" vector-effect="non-scaling-stroke" d="
  M 169.25 473.27
  L 169.33 441.95"
/>
<path stroke="#8b9bad" vector-effect="non-scaling-stroke" d="
  M 341.20 441.95
  L 341.48 472.63
  Q 341.48 472.81 341.66 472.81
  L 341.93 472.81
  Q 342.39 472.81 342.38 472.35
  L 342.04 442.09"
/>
<path stroke="#4c6c78" vector-effect="non-scaling-stroke" d="
  M 418.10 416.91
  Q 413.71 426.59 408.02 436.31
  Q 405.18 441.15 400.66 445.67
  C 395.12 451.21 389.45 457.15 382.80 461.13
  Q 375.95 465.24 369.43 468.98
  Q 366.00 470.95 361.56 471.94
  Q 360.37 472.21 359.30 472.83
  Q 358.33 473.39 359.45 473.39
  Q 372.51 473.47 380.50 472.72
  Q 382.55 472.53 387.64 471.59
  Q 391.71 470.84 395.12 469.59
  Q 417.49 461.39 429.54 441.67
  Q 433.86 434.61 436.65 423.98
  C 437.93 419.12 437.65 414.39 438.28 409.59
  A 0.62 0.61 3.6 0 0 437.66 408.89
  L 421.51 409.18
  A 2.34 2.34 0.0 0 0 419.21 411.51
  Q 419.20 414.49 418.10 416.91"
/>
<path stroke="#969290" vector-effect="non-scaling-stroke" d="
  M 420.38 407.91
  L 420.13 101.55"
/>
<path stroke="#8b9bad" vector-effect="non-scaling-stroke" d="
  M 90.51 102.20
  L 90.23 407.33
  Q 90.23 407.71 89.86 407.78
  Q 89.52 407.85 89.22 407.82"
/>
<path stroke="#738c94" vector-effect="non-scaling-stroke" d="
  M 72.23 403.49
  Q 72.92 398.85 72.47 391.25
  Q 72.16 386.07 72.56 373.83
  Q 72.90 363.50 72.91 356.43
  Q 73.07 259.31 73.04 230.25
  C 73.02 210.83 72.37 187.22 72.57 165.25
  Q 72.70 150.52 72.42 135.78"
/>
<path stroke="#8b9bad" vector-effect="non-scaling-stroke" d="
  M 356.26 101.71
  L 356.80 138.52"
/>
<path stroke="#8b9bad" vector-effect="non-scaling-stroke" d="
  M 153.11 437.51
  C 153.58 433.81 153.98 430.30 153.98 426.47
  Q 153.99 392.24 153.76 358.00
  Q 153.69 347.91 153.76 337.99
  Q 154.28 265.94 153.97 193.71"
/>
<path stroke="#4c6c78" vector-effect="non-scaling-stroke" d="
  M 247.88 146.62
  C 234.66 148.40 229.98 171.65 228.97 181.97
  Q 228.05 191.25 228.00 199.75
  Q 227.82 229.87 228.09 259.50
  C 228.11 262.65 228.23 266.59 229.27 269.55
  Q 232.47 278.68 243.00 279.01
  Q 253.10 279.33 262.71 279.09
  Q 270.65 278.89 273.05 278.21
  C 283.45 275.29 282.85 264.89 282.91 256.25
  Q 283.18 220.97 282.64 191.76
  Q 282.37 176.52 278.03 162.72
  Q 276.75 158.65 273.73 154.15
  Q 269.24 147.47 262.49 146.45
  Q 256.24 145.50 247.88 146.62"
/>
<path stroke="#4c6c78" vector-effect="non-scaling-stroke" d="
  M 340.25 303.45
  A 13.87 13.87 0.0 0 0 326.38 289.58
  L 184.62 289.58
  A 13.87 13.87 0.0 0 0 170.75 303.45
  L 170.75 395.61
  A 13.87 13.87 0.0 0 0 184.62 409.48
  L 326.38 409.48
  A 13.87 13.87 0.0 0 0 340.25 395.61
  L 340.25 303.45"
/>
<path stroke="#969290" vector-effect="non-scaling-stroke" d="
  M 419.09 102.26
  L 419.32 408.55"
/>
<path stroke="#8b9bad" vector-effect="non-scaling-stroke" d="
  M 358.08 138.80
  L 357.89 102.00"
/>
<path stroke="#8b9bad" vector-effect="non-scaling-stroke" d="
  M 152.36 192.22
  Q 152.27 198.23 152.63 213.75
  C 152.93 226.98 152.27 242.98 152.31 256.75
  Q 152.58 342.17 152.47 425.77
  C 152.46 429.87 152.14 433.67 151.76 437.64"
/>
<path stroke="#8b9bad" vector-effect="non-scaling-stroke" d="
  M 91.52 408.14
  L 91.27 102.20"
/>
<path stroke="#507d27" vector-effect="non-scaling-stroke" d="
  M 168.07 157.43
  Q 168.50 161.49 167.93 165.75
  C 167.71 167.34 168.18 168.79 168.59 170.32
  Q 168.91 171.47 170.10 171.46
  L 191.50 171.34
  A 0.73 0.73 0.0 0 0 192.22 170.62
  Q 192.32 160.57 192.18 150.17
  Q 192.16 149.18 191.69 148.34
  Q 191.45 147.91 190.99 147.73
  Q 187.96 146.56 185.08 146.99
  Q 179.81 147.77 174.10 147.06
  Q 171.53 146.73 169.22 147.53
  Q 168.72 147.70 168.51 148.19
  Q 167.09 151.46 168.16 154.94
  C 168.45 155.88 167.98 156.54 168.07 157.43"
/>
<path stroke="#507d27" vector-effect="non-scaling-stroke" d="
  M 343.1729 148.6575
  A 1.49 1.49 0.0 0 0 341.6777 147.1727
  L 320.2779 147.2474
  A 1.49 1.49 0.0 0 0 318.7931 148.7426
  L 318.8671 169.9425
  A 1.49 1.49 0.0 0 0 320.3623 171.4273
  L 341.7621 171.3526
  A 1.49 1.49 0.0 0 0 343.2469 169.8574
  L 343.1729 148.6575"
/>
<path stroke="#507d27" vector-effect="non-scaling-stroke" d="
  M 347.1971 178.2242
  A 1.47 1.47 0.0 0 0 345.7322 176.7491
  L 323.3524 176.6710
  A 1.47 1.47 0.0 0 0 321.8773 178.1358
  L 321.8429 187.9758
  A 1.47 1.47 0.0 0 0 323.3078 189.4509
  L 345.6876 189.5290
  A 1.47 1.47 0.0 0 0 347.1627 188.0642
  L 347.1971 178.2242"
/>
<path stroke="#413136" vector-effect="non-scaling-stroke" d="
  M 249.74 148.53
  Q 248.89 148.81 248.31 148.75"
/>
<path stroke="#68777d" vector-effect="non-scaling-stroke" d="
  M 248.31 148.75
  Q 243.44 149.24 240.42 153.68
  C 237.35 158.20 235.23 162.06 233.74 167.41
  Q 230.41 179.34 230.34 194.96
  Q 230.19 229.10 230.28 261.46
  A 0.45 0.45 0.0 0 0 230.89 261.88
  Q 239.44 258.73 248.17 258.83
  A 0.38 0.38 0.0 0 0 248.55 258.45
  L 248.70 218.72"
/>
<path stroke="#413136" vector-effect="non-scaling-stroke" d="
  M 248.70 218.72
  Q 248.92 215.70 249.46 217.73"
/>
<path stroke="#68777d" vector-effect="non-scaling-stroke" d="
  M 249.46 217.73
  L 249.31 257.63
  Q 249.31 258.73 250.41 258.74
  L 261.35 258.83
  A 0.44 0.43 -0.0 0 0 261.79 258.40
  L 261.92 148.99
  Q 261.92 148.50 261.42 148.50
  L 249.74 148.53"
/>
<path stroke="#a6a6b2" vector-effect="non-scaling-stroke" d="
  M 249.46 217.73
  L 249.74 148.53"
/>
<path stroke="#a6a6b2" vector-effect="non-scaling-stroke" d="
  M 248.70 218.72
  Q 248.55 208.61 248.59 198.50
  Q 248.60 192.95 248.21 184.00
  Q 247.85 175.84 248.15 169.50
  Q 248.74 157.10 248.31 148.75"
/>
<path stroke="#68777d" vector-effect="non-scaling-stroke" d="
  M 276.19 163.74
  C 274.51 158.80 269.43 149.37 263.99 148.78
  A 0.79 0.79 0.0 0 0 263.12 149.56
  L 263.05 257.74
  A 1.01 1.01 0.0 0 0 264.06 258.75
  Q 272.10 258.71 279.86 261.82
  A 0.65 0.65 0.0 0 0 280.76 261.22
  Q 280.55 230.22 280.65 199.35
  C 280.69 187.32 280.08 175.20 276.19 163.74"
/>
<path stroke="#68777d" vector-effect="non-scaling-stroke" d="
  M 279.93 263.19
  Q 272.45 260.15 263.69 259.63
  Q 263.10 259.60 263.11 260.18
  L 263.13 276.01
  Q 263.13 276.64 263.75 276.69
  Q 269.70 277.20 272.59 276.15
  Q 281.03 273.08 280.57 264.10
  A 1.03 1.03 0.0 0 0 279.93 263.19"
/>
<path stroke="#68777d" vector-effect="non-scaling-stroke" d="
  M 261.9008 260.5327
  A 0.64 0.64 0.0 0 0 261.2642 259.8893
  L 250.1043 259.8309
  A 0.64 0.64 0.0 0 0 249.4610 260.4675
  L 249.3792 276.0873
  A 0.64 0.64 0.0 0 0 250.0158 276.7307
  L 261.1757 276.7891
  A 0.64 0.64 0.0 0 0 261.8190 276.1525
  L 261.9008 260.5327"
/>
<path stroke="#68777d" vector-effect="non-scaling-stroke" d="
  M 231.05 263.34
  A 1.43 1.42 76.4 0 0 230.21 264.73
  Q 230.78 273.26 238.31 276.03
  Q 241.64 277.26 247.99 276.65
  Q 248.53 276.60 248.53 276.06
  L 248.57 260.26
  A 0.29 0.28 2.0 0 0 248.29 259.97
  Q 238.76 259.90 231.05 263.34"
/>
<path stroke="#68777d" vector-effect="non-scaling-stroke" d="
  M 187.23 151.75
  L 187.26 153.02
  Q 187.29 153.75 188.02 153.77
  L 189.02 153.81
  Q 189.81 153.84 189.92 153.06
  Q 190.48 148.88 186.52 148.56
  Q 185.26 148.45 185.21 149.80
  Q 185.18 150.42 185.78 150.60
  L 186.50 150.81
  Q 187.21 151.01 187.23 151.75"
/>
<path stroke="#68777d" vector-effect="non-scaling-stroke" d="
  M 169.83 154.03
  L 175.09 149.72
  A 0.10 0.10 0.0 0 0 175.10 149.58
  L 175.07 149.54
  A 3.30 2.27 -39.4 0 0 171.08 149.88
  L 170.77 150.13
  A 3.30 2.27 -39.4 0 0 169.66 153.98
  L 169.69 154.02
  A 0.10 0.10 0.0 0 0 169.83 154.03"
/>
<path stroke="#68777d" vector-effect="non-scaling-stroke" d="
  M 184.38 151.67
  C 184.14 151.48 184.00 151.37 183.81 151.12
  A 0.45 0.45 0.0 0 0 183.13 151.10
  Q 182.75 151.52 182.76 152.05
  A 0.58 0.58 0.0 0 0 183.53 152.59
  L 184.26 152.34
  Q 184.92 152.11 184.38 151.67"
/>
<path stroke="#68777d" vector-effect="non-scaling-stroke" d="
  M 176.00 152.79
  L 175.89 153.10
  Q 175.73 153.54 176.19 153.42
  Q 177.41 153.10 177.74 151.87
  Q 177.87 151.40 177.38 151.35
  L 176.36 151.25
  Q 175.93 151.21 175.96 151.64
  L 176.03 152.54
  Q 176.04 152.66 176.00 152.79"
/>
<path stroke="#68777d" vector-effect="non-scaling-stroke" d="
  M 174.87 152.75
  Q 174.58 151.87 174.20 152.71
  C 173.53 154.18 171.74 156.44 171.98 158.06
  Q 172.25 159.87 172.85 158.15
  Q 173.64 155.90 174.87 154.49
  Q 175.28 154.02 175.08 153.42
  L 174.87 152.75"
/>
<path stroke="#68777d" vector-effect="non-scaling-stroke" d="
  M 185.58 153.79
  Q 185.14 153.59 185.15 154.07
  Q 185.17 154.54 185.38 154.97
  Q 185.50 155.22 185.77 155.24
  Q 186.03 155.25 186.29 155.23
  A 0.46 0.46 0.0 0 0 186.56 154.45
  Q 186.14 154.05 185.58 153.79"
/>
<path stroke="#68777d" vector-effect="non-scaling-stroke" d="
  M 189.37 156.78
  A 0.38 0.38 0.0 0 0 188.63 156.69
  L 187.31 161.05
  A 0.38 0.38 0.0 0 0 187.61 161.54
  L 189.17 161.77
  A 0.38 0.38 0.0 0 0 189.61 161.38
  L 189.37 156.78"
/>
<path stroke="#68777d" vector-effect="non-scaling-stroke" d="
  M 173.42 164.04
  Q 174.59 165.37 174.69 167.04"
/>
<path stroke="#68777d" vector-effect="non-scaling-stroke" d="
  M 174.69 167.04
  Q 172.36 166.38 170.20 164.75
  A 0.60 0.60 0.0 0 0 169.24 165.26
  Q 169.50 169.89 174.28 168.63
  Q 174.92 168.46 174.69 167.04"
/>
<path stroke="#68777d" vector-effect="non-scaling-stroke" d="
  M 174.69 167.04
  Q 175.63 166.54 175.78 165.98
  Q 175.91 165.48 175.46 165.22
  L 173.42 164.04"
/>
<path stroke="#68777d" vector-effect="non-scaling-stroke" d="
  M 173.42 164.04
  Q 172.67 162.36 172.71 161.15
  Q 172.78 158.93 171.94 160.98
  Q 171.04 163.21 173.42 164.04"
/>
<path stroke="#68777d" vector-effect="non-scaling-stroke" d="
  M 187.69 165.63
  A 0.51 0.50 -27.6 0 1 187.52 165.58
  L 185.54 164.56
  A 0.75 0.75 0.0 0 0 184.47 165.05
  Q 184.42 165.24 184.44 165.44
  Q 184.52 166.17 185.20 166.47
  Q 186.43 167.01 186.60 168.40
  Q 186.67 168.96 187.20 169.14
  C 190.02 170.09 190.41 167.53 190.47 165.60
  Q 190.48 165.48 190.44 165.37
  Q 190.41 165.28 190.38 165.19
  Q 190.20 164.69 190.00 165.18
  Q 189.64 166.02 187.69 165.63"
/>
<path stroke="#68777d" vector-effect="non-scaling-stroke" d="
  M 177.5050 168.6357
  A 0.79 0.58 128.8 0 0 178.4520 168.3834
  A 0.79 0.58 128.8 0 0 178.4950 167.4043
  A 0.79 0.58 128.8 0 0 177.5480 167.6566
  A 0.79 0.58 128.8 0 0 177.5050 168.6357"
/>
<path stroke="#68777d" vector-effect="non-scaling-stroke" d="
  M 335.83 148.99
  L 339.97 154.35
  A 0.03 0.03 0.0 0 0 340.02 154.36
  L 340.05 154.33
  A 3.28 2.81 52.3 0 0 340.26 150.02
  L 340.09 149.80
  A 3.28 2.81 52.3 0 0 335.86 148.92
  L 335.83 148.95
  A 0.03 0.03 0.0 0 0 335.83 148.99"
/>
<path stroke="#68777d" vector-effect="non-scaling-stroke" d="
  M 320.88 154.54
  L 325.92 149.20
  A 0.13 0.13 0.0 0 0 325.92 149.02
  L 325.86 148.97
  A 3.63 2.22 -46.6 0 0 321.76 150.09
  L 321.52 150.33
  A 3.63 2.22 -46.6 0 0 320.64 154.49
  L 320.69 154.54
  A 0.13 0.13 0.0 0 0 320.88 154.54"
/>
<path stroke="#68777d" vector-effect="non-scaling-stroke" d="
  M 335.2647 152.2492
  A 0.97 0.70 15.5 0 0 334.5171 151.3155
  A 0.97 0.70 15.5 0 0 333.3953 151.7308
  A 0.97 0.70 15.5 0 0 334.1429 152.6645
  A 0.97 0.70 15.5 0 0 335.2647 152.2492"
/>
<path stroke="#68777d" vector-effect="non-scaling-stroke" d="
  M 329.4080 152.2781
  A 1.48 0.67 7.3 0 0 328.0251 151.4254
  A 1.48 0.67 7.3 0 0 326.4720 151.9019
  A 1.48 0.67 7.3 0 0 327.8549 152.7546
  A 1.48 0.67 7.3 0 0 329.4080 152.2781"
/>
<path stroke="#68777d" vector-effect="non-scaling-stroke" d="
  M 324.94 164.51
  Q 325.57 166.30 326.41 166.61
  Q 327.14 166.89 327.57 166.17
  A 0.67 0.66 24.0 0 0 327.19 165.19
  L 324.94 164.51"
/>
<path stroke="#68777d" vector-effect="non-scaling-stroke" d="
  M 324.94 164.51
  C 323.76 160.69 324.42 157.44 324.67 153.60
  Q 324.69 153.27 324.36 153.29
  L 324.04 153.30
  A 0.55 0.54 88.9 0 0 323.53 153.84
  Q 323.50 158.26 323.12 162.75
  Q 322.96 164.58 324.94 164.51"
/>
<path stroke="#68777d" vector-effect="non-scaling-stroke" d="
  M 337.77 164.55
  Q 337.83 163.72 338.68 163.51
  A 0.93 0.93 0.0 0 0 339.39 162.72
  Q 339.77 159.75 339.51 156.88
  A 1.18 1.17 20.0 0 0 339.17 156.16
  Q 338.29 155.26 337.78 154.10
  A 0.77 0.75 72.1 0 0 336.94 153.66
  Q 336.01 153.83 336.61 154.40
  C 337.60 155.34 338.75 156.52 338.79 157.98
  Q 338.87 160.80 337.77 163.40
  Q 337.57 163.85 337.17 164.14
  C 336.42 164.69 336.25 165.61 336.69 166.42
  Q 337.20 167.36 337.41 168.42
  Q 337.53 168.98 338.08 169.14
  Q 341.14 170.00 341.43 166.59
  Q 341.50 165.80 340.71 165.70
  L 338.50 165.44
  A 0.83 0.82 5.7 0 1 337.77 164.55"
/>
<path stroke="#68777d" vector-effect="non-scaling-stroke" d="
  M 326.23 167.74
  L 320.64 164.63
  A 0.04 0.04 0.0 0 0 320.58 164.64
  L 320.55 164.70
  A 3.06 2.65 29.1 0 0 321.93 168.51
  L 322.25 168.68
  A 3.06 2.65 29.1 0 0 326.21 167.86
  L 326.24 167.79
  A 0.04 0.04 0.0 0 0 326.23 167.74"
/>
<path stroke="#68777d" vector-effect="non-scaling-stroke" d="
  M 333.9264 168.6281
  A 0.87 0.71 99.5 0 0 334.7703 167.8872
  A 0.87 0.71 99.5 0 0 334.2136 166.9119
  A 0.87 0.71 99.5 0 0 333.3697 167.6528
  A 0.87 0.71 99.5 0 0 333.9264 168.6281"
/>
<path stroke="#68777d" vector-effect="non-scaling-stroke" d="
  M 328.58 168.33
  Q 328.75 168.33 328.91 168.26
  A 0.39 0.39 0.0 0 0 329.05 167.65
  Q 328.49 166.96 328.04 167.70
  Q 327.89 167.95 327.83 168.24
  Q 327.71 168.88 328.21 168.46
  Q 328.37 168.33 328.58 168.33"
/>
<path stroke="#2a3174" vector-effect="non-scaling-stroke" d="
  M 345.9013 179.6603
  A 0.83 0.83 0.0 0 0 345.0670 178.8347
  L 323.9073 178.9455
  A 0.83 0.83 0.0 0 0 323.0816 179.7798
  L 323.1187 186.8597
  A 0.83 0.83 0.0 0 0 323.9530 187.6853
  L 345.1127 187.5745
  A 0.83 0.83 0.0 0 0 345.9384 186.7402
  L 345.9013 179.6603"
/>
<path stroke="#73457e" vector-effect="non-scaling-stroke" d="
  M 338.26 303.00
  A 11.46 11.46 0.0 0 0 326.80 291.54
  L 184.42 291.54
  A 11.46 11.46 0.0 0 0 172.96 303.00
  L 172.96 395.98
  A 11.46 11.46 0.0 0 0 184.42 407.44
  L 326.80 407.44
  A 11.46 11.46 0.0 0 0 338.26 395.98
  L 338.26 303.00"
/>
</g>
<path fill="#020101" d="
  M 192.38 0.00
  L 194.05 0.00
  Q 193.72 0.81 192.04 1.78
  Q 189.60 3.54 187.53 3.89
  Q 179.34 5.25 170.53 7.29
  Q 166.25 8.29 162.52 10.23
  Q 157.43 12.89 152.21 15.63
  Q 142.77 20.60 133.79 28.53
  C 126.17 35.26 118.66 43.19 112.80 51.94
  Q 98.10 73.86 92.02 98.90
  Q 91.88 99.45 92.45 99.45
  L 149.41 99.53
  Q 153.55 100.36 154.88 99.58
  L 353.95 99.56
  Q 356.97 100.17 357.77 99.61
  L 417.27 99.48
  A 1.10 1.09 83.6 0 0 418.33 98.15
  Q 411.53 67.97 392.62 44.07
  C 389.22 39.78 385.34 36.21 381.53 32.33
  C 376.70 27.41 370.76 22.76 365.07 19.15
  Q 357.48 14.34 344.73 8.80
  Q 344.61 8.75 344.66 8.63
  L 344.77 8.38
  Q 344.81 8.29 344.90 8.32
  Q 365.09 15.69 380.10 29.42
  C 394.87 42.95 405.50 59.23 413.13 77.97
  Q 415.38 83.51 416.84 88.95
  Q 418.32 94.45 419.65 100.05
  Q 419.83 100.80 420.13 101.55
  Q 419.86 102.13 419.09 102.26
  Q 418.50 101.71 418.00 101.70
  Q 396.85 101.46 358.50 101.72
  Q 358.16 101.73 357.89 102.00
  Q 357.44 102.10 356.26 101.71
  Q 356.09 101.48 356.00 101.66
  Q 252.35 101.66 155.35 101.74
  A 1.27 1.27 0.0 0 0 154.08 102.98
  Q 153.56 119.80 153.97 137.06
  Q 153.98 137.44 153.76 137.75
  Q 153.62 137.96 153.63 138.20
  Q 153.66 138.95 154.29 138.53
  Q 166.74 130.26 180.11 132.93
  Q 191.88 135.29 199.74 145.14
  Q 206.06 153.06 206.81 163.80
  Q 207.76 177.33 198.00 188.59
  Q 196.65 190.15 195.00 191.43
  C 192.60 193.29 190.50 195.35 187.67 196.45
  Q 174.51 201.52 162.36 197.54
  Q 160.25 196.84 158.08 195.62
  Q 156.09 194.49 153.97 193.71
  Q 153.14 193.20 152.36 192.22
  Q 148.15 188.15 147.09 186.92
  Q 140.74 179.57 139.97 167.63
  C 139.71 163.49 140.65 158.20 141.92 154.23
  C 143.67 148.76 148.06 143.71 152.40 139.60
  A 1.09 1.08 68.5 0 0 152.74 138.81
  L 152.95 102.27
  A 0.54 0.53 90.0 0 0 152.42 101.73
  Q 123.26 101.69 92.00 101.72
  Q 91.40 101.72 91.27 102.20
  Q 90.92 102.04 90.51 102.20
  Q 89.98 101.37 89.99 100.49
  Q 89.99 99.98 90.32 99.59
  Q 91.18 98.58 91.47 97.37
  C 97.28 73.58 110.02 49.53 128.25 32.23
  Q 142.38 18.82 158.73 11.07
  C 160.68 10.15 162.71 9.52 164.52 8.31
  Q 166.67 6.87 164.18 7.59
  Q 141.30 14.17 122.14 27.89
  C 98.68 44.70 81.71 69.33 73.62 96.90
  C 73.04 98.89 72.46 101.78 72.44 103.50
  Q 72.26 119.65 72.42 135.78
  L 72.05 142.68
  A 0.67 0.67 0.0 0 1 71.17 143.28
  Q 70.86 143.18 70.88 142.94
  Q 70.92 142.25 70.61 142.87
  Q 70.47 143.16 70.35 143.29
  Q 70.36 123.89 70.38 104.50
  Q 70.39 100.09 71.43 96.71
  C 74.97 85.30 79.63 74.01 85.99 63.88
  Q 107.49 29.64 144.32 12.46
  Q 147.78 10.85 152.99 9.14
  Q 157.40 7.70 161.78 6.14
  Q 164.18 5.29 166.21 5.09
  C 168.24 4.89 169.88 4.00 171.97 3.73
  Q 174.04 3.46 176.18 2.98
  Q 177.82 2.61 180.38 2.60
  Q 183.38 2.59 186.02 1.43
  Q 188.24 2.45 190.47 0.45
  Q 191.61 0.50 192.38 0.00
  Z
  M 196.11 177.52
  Q 196.43 178.12 196.44 178.88
  Q 196.50 182.58 196.46 185.50
  Q 196.42 188.12 198.07 186.09
  Q 201.81 181.53 203.86 174.90
  Q 205.91 168.29 204.28 161.56
  C 203.63 158.88 204.04 156.49 202.87 153.88
  Q 197.83 142.64 187.58 137.69
  Q 183.96 135.95 179.64 135.86
  Q 170.90 135.67 163.90 136.29
  C 159.64 136.67 148.60 142.69 148.55 148.61
  Q 148.51 152.17 148.22 156.30
  A 0.57 0.57 0.0 0 0 149.11 156.81
  Q 151.92 154.90 155.00 155.88
  A 1.95 1.94 4.7 0 1 156.33 157.44
  C 156.64 159.51 155.99 162.26 153.83 163.10
  Q 151.70 163.93 150.47 162.50
  Q 148.54 160.27 148.57 163.22
  Q 148.67 172.08 148.51 180.53
  Q 148.43 184.44 148.59 185.07
  C 149.38 188.22 152.48 187.60 155.07 187.77
  Q 155.66 187.81 155.85 188.37
  C 156.18 189.36 156.18 190.53 156.67 191.42
  C 158.45 194.67 161.82 195.53 165.27 195.65
  Q 172.28 195.91 179.17 195.68
  C 185.33 195.48 189.21 194.11 193.51 190.01
  Q 194.32 189.23 193.20 189.25
  L 171.99 189.63
  A 1.16 1.16 0.0 0 1 170.81 188.48
  L 170.73 177.48
  A 0.79 0.79 0.0 0 1 171.52 176.69
  L 194.83 176.75
  Q 195.69 176.75 196.11 177.52
  Z
  M 145.38 151.54
  Q 143.63 153.84 142.89 156.61
  Q 140.60 165.22 142.51 174.30
  Q 143.27 177.89 145.81 181.17
  Q 146.70 182.32 146.72 180.87
  Q 146.89 166.97 146.68 152.04
  Q 146.68 151.61 146.36 151.39
  A 0.72 0.72 0.0 0 0 145.38 151.54
  Z
  M 154.14 157.50
  L 152.26 157.13
  A 0.72 0.72 0.0 0 0 151.42 157.69
  L 151.21 158.73
  A 2.78 1.40 -78.8 0 0 152.04 161.73
  L 152.59 161.84
  A 2.78 1.40 -78.8 0 0 154.51 159.39
  L 154.71 158.35
  A 0.72 0.72 0.0 0 0 154.14 157.50
  Z
  M 192.87 187.13
  L 194.35 186.84
  Q 194.75 186.76 194.79 186.35
  L 195.31 179.97
  A 0.76 0.76 0.0 0 0 194.47 179.15
  L 193.31 179.27
  Q 191.16 178.80 187.75 178.80
  Q 179.24 178.78 172.82 178.92
  Q 172.19 178.93 172.20 179.56
  L 172.33 186.73
  Q 172.35 187.45 173.06 187.44
  L 192.87 187.13
  Z"
/>
<path fill="#2a363d" d="
  M 194.05 0.00
  L 319.75 0.00
  L 320.75 0.77
  Q 320.64 1.06 319.51 0.84
  Q 318.27 0.61 318.29 2.24
  Q 317.14 0.81 316.06 1.12
  Q 315.05 1.40 316.09 1.49
  C 317.89 1.65 318.32 3.23 319.62 4.20
  C 322.20 6.14 324.89 7.94 327.03 10.38
  Q 336.09 20.72 340.59 30.99
  Q 346.85 45.26 348.01 49.74
  Q 354.41 74.45 357.77 99.61
  Q 356.97 100.17 353.95 99.56
  Q 356.69 99.93 356.45 98.29
  Q 353.93 80.80 350.30 63.51
  Q 346.39 44.87 337.84 27.87
  C 333.42 19.08 326.99 10.39 318.39 4.86
  Q 316.07 3.37 313.23 3.13
  Q 307.45 2.63 301.49 2.60
  C 283.09 2.49 265.34 2.89 247.24 2.81
  Q 230.06 2.74 211.50 2.61
  Q 204.10 2.55 197.40 2.97
  C 193.25 3.22 188.46 7.81 185.67 10.70
  Q 175.59 21.17 169.96 34.31
  Q 169.77 34.76 166.59 42.72
  Q 164.05 49.10 163.47 51.25
  Q 156.99 75.08 154.88 99.58
  Q 153.55 100.36 149.41 99.53
  Q 151.43 99.63 152.92 99.06
  Q 153.36 98.89 153.41 98.43
  Q 155.84 77.85 160.37 59.07
  Q 163.74 45.11 170.75 30.14
  C 175.41 20.19 182.27 11.61 190.50 4.50
  Q 192.02 3.18 192.04 1.78
  Q 193.72 0.81 194.05 0.00
  Z"
/>
<path fill="#2a363d" d="
  M 190.47 0.45
  Q 188.24 2.45 186.02 1.43
  L 190.47 0.45
  Z"
/>
<path fill="#020101" d="
  M 320.75 0.77
  Q 333.49 2.30 339.00 3.48
  C 366.46 9.35 391.15 23.15 410.02 43.89
  Q 431.98 68.03 440.13 98.14
  Q 441.42 102.93 440.67 108.70
  L 440.43 409.73
  Q 440.61 414.86 439.99 418.50
  Q 436.29 440.54 421.86 455.36
  Q 409.90 467.65 391.85 473.25
  Q 391.40 473.39 389.62 473.49
  Q 387.88 473.59 387.90 475.49
  Q 388.05 493.79 387.77 512.00
  L 385.60 512.00
  L 385.73 475.65
  A 0.53 0.53 0.0 0 0 385.17 475.12
  Q 379.78 475.39 375.23 475.40
  Q 260.36 475.54 145.05 475.48
  Q 135.61 475.47 126.53 475.11
  Q 125.43 475.07 125.43 476.17
  L 125.42 512.00
  L 122.89 512.00
  L 122.86 475.57
  Q 123.69 473.43 121.64 473.54
  Q 116.54 472.48 111.71 470.37
  Q 89.02 460.43 77.97 439.50
  Q 70.75 425.82 70.57 408.75
  Q 70.39 392.14 70.31 375.53
  Q 71.05 375.60 71.18 375.54
  Q 72.20 374.97 72.21 376.14
  Q 72.29 389.73 72.23 403.49
  Q 72.85 404.71 72.51 406.76
  A 0.96 0.95 -85.4 0 0 73.45 407.87
  L 89.22 407.82
  L 91.52 408.14
  Q 95.70 413.67 101.63 417.67
  C 113.51 425.66 126.81 431.20 141.01 434.92
  Q 146.38 436.32 151.76 437.64
  Q 152.09 437.73 152.22 437.48
  Q 152.30 437.34 152.23 437.23
  Q 152.15 437.10 152.30 437.10
  Q 152.72 437.11 153.11 437.51
  Q 154.39 438.21 155.24 438.37
  C 161.03 439.50 167.15 440.67 172.97 440.82
  Q 179.84 440.99 186.35 441.00
  Q 258.42 441.06 331.51 440.98
  Q 344.60 440.97 356.74 438.28
  A 0.88 0.87 78.3 0 0 357.41 437.25
  Q 356.91 434.75 356.91 432.33
  Q 356.90 313.40 356.76 193.87
  A 0.23 0.23 0.0 0 0 356.41 193.67
  C 354.07 195.07 352.23 196.66 349.41 197.38
  Q 342.97 199.03 340.76 199.23
  Q 329.67 200.22 321.24 195.16
  Q 303.25 184.34 304.37 162.84
  Q 304.82 154.21 310.84 146.20
  Q 321.47 132.03 339.27 132.29
  Q 348.35 132.43 356.80 138.52
  Q 357.20 138.06 358.08 138.80
  C 365.10 145.57 369.94 152.39 370.97 162.31
  Q 372.81 180.04 359.21 191.57
  C 358.36 192.30 358.06 193.04 358.06 194.15
  Q 357.79 324.80 358.14 431.18
  Q 358.15 433.87 358.30 437.00
  Q 358.35 437.97 359.30 437.74
  Q 364.01 436.58 368.70 435.44
  Q 381.78 432.26 396.06 425.53
  C 402.49 422.50 408.17 418.66 413.73 414.24
  Q 417.15 411.52 419.32 408.55
  L 420.38 407.91
  L 437.79 407.73
  Q 438.30 407.73 438.30 407.22
  Q 438.02 260.63 438.27 107.97
  C 438.28 102.81 437.89 97.62 436.20 92.69
  Q 420.45 46.62 380.19 22.06
  Q 369.53 15.56 356.20 10.59
  Q 351.15 8.71 345.56 7.77
  Q 340.10 6.86 334.62 6.12
  Q 329.56 5.44 318.29 2.24
  Q 318.27 0.61 319.51 0.84
  Q 320.64 1.06 320.75 0.77
  Z
  M 356.43 187.66
  C 358.85 187.40 362.65 188.32 362.58 184.34
  Q 362.38 173.01 362.45 162.07
  Q 362.46 161.13 361.66 161.63
  C 359.72 162.84 356.17 164.74 354.95 161.33
  Q 353.54 157.36 357.09 154.94
  A 0.86 0.85 52.8 0 1 358.23 155.10
  Q 359.78 156.94 362.31 157.18
  A 0.34 0.34 0.0 0 0 362.67 156.73
  L 362.01 154.79
  Q 361.89 154.43 361.97 154.05
  Q 362.51 151.67 362.88 149.08
  C 363.63 143.96 353.19 138.08 349.43 136.58
  Q 348.35 136.15 347.30 136.10
  Q 339.42 135.71 329.98 136.08
  Q 326.08 136.23 323.27 137.72
  C 316.53 141.29 311.76 146.82 308.48 153.69
  C 307.43 155.88 307.56 158.12 306.96 160.37
  C 305.17 167.15 306.36 173.89 309.72 180.38
  Q 314.34 189.33 323.07 194.08
  Q 325.28 195.28 327.49 195.45
  Q 337.63 196.22 349.48 195.29
  C 352.64 195.05 354.91 191.12 355.55 188.43
  Q 355.71 187.73 356.43 187.66
  Z
  M 364.22 151.20
  L 364.28 181.70
  A 0.03 0.03 0.0 0 0 364.31 181.73
  L 364.36 181.73
  A 13.67 4.64 89.9 0 0 368.97 168.06
  L 368.97 164.84
  A 13.67 4.64 89.9 0 0 364.30 151.17
  L 364.25 151.17
  A 0.03 0.03 0.0 0 0 364.22 151.20
  Z
  M 357.5187 161.8343
  A 2.48 1.17 86.1 0 0 358.5173 159.2804
  A 2.48 1.17 86.1 0 0 357.1813 156.8857
  A 2.48 1.17 86.1 0 0 356.1827 159.4396
  A 2.48 1.17 86.1 0 0 357.5187 161.8343
  Z
  M 168.31 473.21
  Q 169.16 473.14 169.25 473.27
  Q 256.95 473.09 344.75 472.99
  Q 348.05 472.99 350.94 472.92
  Q 354.03 472.84 357.01 472.04
  Q 364.76 469.97 367.82 468.59
  Q 371.13 467.09 379.96 461.77
  Q 386.66 457.74 390.79 454.04
  Q 396.12 449.26 401.14 443.86
  Q 405.51 439.15 409.25 432.36
  Q 414.01 423.71 417.59 416.32
  Q 418.30 414.86 418.31 413.21
  Q 418.33 411.43 417.10 412.72
  Q 415.13 414.80 413.17 416.20
  C 407.40 420.29 401.92 423.75 395.51 426.80
  Q 378.20 435.03 359.31 438.65
  A 0.55 0.54 -12.2 0 0 358.88 439.31
  Q 359.67 442.84 360.87 446.22
  Q 364.04 455.18 368.77 466.63
  Q 368.83 466.78 368.68 466.84
  L 368.43 466.95
  Q 368.23 467.03 368.15 466.84
  Q 362.43 453.87 357.91 440.06
  Q 357.74 439.55 357.21 439.63
  Q 349.67 440.82 342.69 441.62
  Q 342.24 441.67 342.04 442.09
  L 341.20 441.95
  L 169.33 441.95
  Q 168.47 441.94 168.13 441.64
  L 153.84 439.27
  A 0.64 0.63 -76.3 0 0 153.13 439.71
  Q 148.92 453.53 143.48 465.73
  Q 141.99 469.06 142.76 465.51
  Q 142.99 464.43 143.92 462.30
  Q 148.87 450.96 151.81 440.26
  Q 152.26 438.63 150.60 438.31
  Q 124.09 433.20 101.48 418.83
  Q 97.33 416.20 90.53 409.53
  Q 90.06 409.07 89.41 409.07
  L 73.32 409.09
  Q 72.42 409.09 72.51 409.98
  Q 72.93 414.71 73.58 419.19
  Q 74.64 426.59 78.19 435.03
  C 85.88 453.32 104.41 467.96 124.04 471.77
  C 133.46 473.60 142.80 473.49 152.27 473.61
  Q 154.01 473.63 152.35 473.08
  Q 149.46 472.12 146.18 470.99
  Q 143.30 469.99 140.47 468.24
  C 132.95 463.59 125.22 460.10 118.61 454.00
  Q 110.80 446.79 105.54 439.57
  Q 101.17 433.58 94.06 419.29
  C 93.14 417.45 92.56 415.62 92.08 413.67
  Q 91.43 411.02 92.64 413.47
  C 93.62 415.44 93.90 417.50 94.99 419.49
  Q 98.95 426.74 103.00 434.13
  Q 104.93 437.63 107.69 440.92
  Q 113.71 448.12 119.36 453.37
  C 125.33 458.93 132.32 462.42 139.26 466.27
  Q 145.42 469.68 150.74 471.19
  Q 159.38 473.63 168.31 473.21
  Z
  M 418.10 416.91
  Q 413.71 426.59 408.02 436.31
  Q 405.18 441.15 400.66 445.67
  C 395.12 451.21 389.45 457.15 382.80 461.13
  Q 375.95 465.24 369.43 468.98
  Q 366.00 470.95 361.56 471.94
  Q 360.37 472.21 359.30 472.83
  Q 358.33 473.39 359.45 473.39
  Q 372.51 473.47 380.50 472.72
  Q 382.55 472.53 387.64 471.59
  Q 391.71 470.84 395.12 469.59
  Q 417.49 461.39 429.54 441.67
  Q 433.86 434.61 436.65 423.98
  C 437.93 419.12 437.65 414.39 438.28 409.59
  A 0.62 0.61 3.6 0 0 437.66 408.89
  L 421.51 409.18
  A 2.34 2.34 0.0 0 0 419.21 411.51
  Q 419.20 414.49 418.10 416.91
  Z"
/>
<path fill="#96d6ef" d="
  M 318.29 2.24
  Q 329.56 5.44 334.62 6.12
  Q 340.10 6.86 345.56 7.77
  Q 351.15 8.71 356.20 10.59
  Q 369.53 15.56 380.19 22.06
  Q 420.45 46.62 436.20 92.69
  C 437.89 97.62 438.28 102.81 438.27 107.97
  Q 438.02 260.63 438.30 407.22
  Q 438.30 407.73 437.79 407.73
  L 420.38 407.91
  L 420.13 101.55
  Q 419.83 100.80 419.65 100.05
  Q 418.32 94.45 416.84 88.95
  Q 415.38 83.51 413.13 77.97
  C 405.50 59.23 394.87 42.95 380.10 29.42
  Q 365.09 15.69 344.90 8.32
  Q 344.81 8.29 344.77 8.38
  L 344.66 8.63
  Q 344.61 8.75 344.73 8.80
  Q 357.48 14.34 365.07 19.15
  C 370.76 22.76 376.70 27.41 381.53 32.33
  C 385.34 36.21 389.22 39.78 392.62 44.07
  Q 411.53 67.97 418.33 98.15
  A 1.10 1.09 83.6 0 1 417.27 99.48
  L 357.77 99.61
  Q 354.41 74.45 348.01 49.74
  Q 346.85 45.26 340.59 30.99
  Q 336.09 20.72 327.03 10.38
  C 324.89 7.94 322.20 6.14 319.62 4.20
  C 318.32 3.23 317.89 1.65 316.09 1.49
  Q 315.05 1.40 316.06 1.12
  Q 317.14 0.81 318.29 2.24
  Z"
/>
<path fill="#96d6ef" d="
  M 192.04 1.78
  Q 192.02 3.18 190.50 4.50
  C 182.27 11.61 175.41 20.19 170.75 30.14
  Q 163.74 45.11 160.37 59.07
  Q 155.84 77.85 153.41 98.43
  Q 153.36 98.89 152.92 99.06
  Q 151.43 99.63 149.41 99.53
  L 92.45 99.45
  Q 91.88 99.45 92.02 98.90
  Q 98.10 73.86 112.80 51.94
  C 118.66 43.19 126.17 35.26 133.79 28.53
  Q 142.77 20.60 152.21 15.63
  Q 157.43 12.89 162.52 10.23
  Q 166.25 8.29 170.53 7.29
  Q 179.34 5.25 187.53 3.89
  Q 189.60 3.54 192.04 1.78
  Z"
/>
<path fill="#96d6ef" d="
  M 353.95 99.56
  L 154.88 99.58
  Q 156.99 75.08 163.47 51.25
  Q 164.05 49.10 166.59 42.72
  Q 169.77 34.76 169.96 34.31
  Q 175.59 21.17 185.67 10.70
  C 188.46 7.81 193.25 3.22 197.40 2.97
  Q 204.10 2.55 211.50 2.61
  Q 230.06 2.74 247.24 2.81
  C 265.34 2.89 283.09 2.49 301.49 2.60
  Q 307.45 2.63 313.23 3.13
  Q 316.07 3.37 318.39 4.86
  C 326.99 10.39 333.42 19.08 337.84 27.87
  Q 346.39 44.87 350.30 63.51
  Q 353.93 80.80 356.45 98.29
  Q 356.69 99.93 353.95 99.56
  Z"
/>
<path fill="#96d6ef" d="
  M 90.51 102.20
  L 90.23 407.33
  Q 90.23 407.71 89.86 407.78
  Q 89.52 407.85 89.22 407.82
  L 73.45 407.87
  A 0.96 0.95 -85.4 0 1 72.51 406.76
  Q 72.85 404.71 72.23 403.49
  Q 72.92 398.85 72.47 391.25
  Q 72.16 386.07 72.56 373.83
  Q 72.90 363.50 72.91 356.43
  Q 73.07 259.31 73.04 230.25
  C 73.02 210.83 72.37 187.22 72.57 165.25
  Q 72.70 150.52 72.42 135.78
  Q 72.26 119.65 72.44 103.50
  C 72.46 101.78 73.04 98.89 73.62 96.90
  C 81.71 69.33 98.68 44.70 122.14 27.89
  Q 141.30 14.17 164.18 7.59
  Q 166.67 6.87 164.52 8.31
  C 162.71 9.52 160.68 10.15 158.73 11.07
  Q 142.38 18.82 128.25 32.23
  C 110.02 49.53 97.28 73.58 91.47 97.37
  Q 91.18 98.58 90.32 99.59
  Q 89.99 99.98 89.99 100.49
  Q 89.98 101.37 90.51 102.20
  Z"
/>
<path fill="#96d6ef" d="
  M 356.26 101.71
  L 356.80 138.52
  Q 348.35 132.43 339.27 132.29
  Q 321.47 132.03 310.84 146.20
  Q 304.82 154.21 304.37 162.84
  Q 303.25 184.34 321.24 195.16
  Q 329.67 200.22 340.76 199.23
  Q 342.97 199.03 349.41 197.38
  C 352.23 196.66 354.07 195.07 356.41 193.67
  A 0.23 0.23 0.0 0 1 356.76 193.87
  Q 356.90 313.40 356.91 432.33
  Q 356.91 434.75 357.41 437.25
  A 0.88 0.87 78.3 0 1 356.74 438.28
  Q 344.60 440.97 331.51 440.98
  Q 258.42 441.06 186.35 441.00
  Q 179.84 440.99 172.97 440.82
  C 167.15 440.67 161.03 439.50 155.24 438.37
  Q 154.39 438.21 153.11 437.51
  C 153.58 433.81 153.98 430.30 153.98 426.47
  Q 153.99 392.24 153.76 358.00
  Q 153.69 347.91 153.76 337.99
  Q 154.28 265.94 153.97 193.71
  Q 156.09 194.49 158.08 195.62
  Q 160.25 196.84 162.36 197.54
  Q 174.51 201.52 187.67 196.45
  C 190.50 195.35 192.60 193.29 195.00 191.43
  Q 196.65 190.15 198.00 188.59
  Q 207.76 177.33 206.81 163.80
  Q 206.06 153.06 199.74 145.14
  Q 191.88 135.29 180.11 132.93
  Q 166.74 130.26 154.29 138.53
  Q 153.66 138.95 153.63 138.20
  Q 153.62 137.96 153.76 137.75
  Q 153.98 137.44 153.97 137.06
  Q 153.56 119.80 154.08 102.98
  A 1.27 1.27 0.0 0 1 155.35 101.74
  Q 252.35 101.66 356.00 101.66
  Q 356.09 101.48 356.26 101.71
  Z
  M 247.88 146.62
  C 234.66 148.40 229.98 171.65 228.97 181.97
  Q 228.05 191.25 228.00 199.75
  Q 227.82 229.87 228.09 259.50
  C 228.11 262.65 228.23 266.59 229.27 269.55
  Q 232.47 278.68 243.00 279.01
  Q 253.10 279.33 262.71 279.09
  Q 270.65 278.89 273.05 278.21
  C 283.45 275.29 282.85 264.89 282.91 256.25
  Q 283.18 220.97 282.64 191.76
  Q 282.37 176.52 278.03 162.72
  Q 276.75 158.65 273.73 154.15
  Q 269.24 147.47 262.49 146.45
  Q 256.24 145.50 247.88 146.62
  Z
  M 340.25 303.45
  A 13.87 13.87 0.0 0 0 326.38 289.58
  L 184.62 289.58
  A 13.87 13.87 0.0 0 0 170.75 303.45
  L 170.75 395.61
  A 13.87 13.87 0.0 0 0 184.62 409.48
  L 326.38 409.48
  A 13.87 13.87 0.0 0 0 340.25 395.61
  L 340.25 303.45
  Z"
/>
<path fill="#96d6ef" d="
  M 419.09 102.26
  L 419.32 408.55
  Q 417.15 411.52 413.73 414.24
  C 408.17 418.66 402.49 422.50 396.06 425.53
  Q 381.78 432.26 368.70 435.44
  Q 364.01 436.58 359.30 437.74
  Q 358.35 437.97 358.30 437.00
  Q 358.15 433.87 358.14 431.18
  Q 357.79 324.80 358.06 194.15
  C 358.06 193.04 358.36 192.30 359.21 191.57
  Q 372.81 180.04 370.97 162.31
  C 369.94 152.39 365.10 145.57 358.08 138.80
  L 357.89 102.00
  Q 358.16 101.73 358.50 101.72
  Q 396.85 101.46 418.00 101.70
  Q 418.50 101.71 419.09 102.26
  Z"
/>
<path fill="#954e30" d="
  M 420.13 101.55
  L 420.38 407.91
  L 419.32 408.55
  L 419.09 102.26
  Q 419.86 102.13 420.13 101.55
  Z"
/>
<path fill="#96d6ef" d="
  M 152.36 192.22
  Q 152.27 198.23 152.63 213.75
  C 152.93 226.98 152.27 242.98 152.31 256.75
  Q 152.58 342.17 152.47 425.77
  C 152.46 429.87 152.14 433.67 151.76 437.64
  Q 146.38 436.32 141.01 434.92
  C 126.81 431.20 113.51 425.66 101.63 417.67
  Q 95.70 413.67 91.52 408.14
  L 91.27 102.20
  Q 91.40 101.72 92.00 101.72
  Q 123.26 101.69 152.42 101.73
  A 0.54 0.53 -90.0 0 1 152.95 102.27
  L 152.74 138.81
  A 1.09 1.08 68.5 0 1 152.40 139.60
  C 148.06 143.71 143.67 148.76 141.92 154.23
  C 140.65 158.20 139.71 163.49 139.97 167.63
  Q 140.74 179.57 147.09 186.92
  Q 148.15 188.15 152.36 192.22
  Z"
/>
<path fill="#7f606b" d="
  M 356.26 101.71
  Q 357.44 102.10 357.89 102.00
  L 358.08 138.80
  Q 357.20 138.06 356.80 138.52
  L 356.26 101.71
  Z"
/>
<path fill="#7f606b" d="
  M 90.51 102.20
  Q 90.92 102.04 91.27 102.20
  L 91.52 408.14
  L 89.22 407.82
  Q 89.52 407.85 89.86 407.78
  Q 90.23 407.71 90.23 407.33
  L 90.51 102.20
  Z"
/>
<path fill="#7f606b" d="
  M 440.67 108.70
  Q 440.83 146.61 440.94 184.50
  Q 441.18 276.29 440.85 344.75
  Q 440.76 364.75 440.93 381.68
  C 440.99 388.20 440.53 395.22 440.99 402.00
  Q 441.26 406.01 440.43 409.73
  L 440.67 108.70
  Z"
/>
<path fill="#4f4138" d="
  M 72.42 135.78
  Q 72.70 150.52 72.57 165.25
  C 72.37 187.22 73.02 210.83 73.04 230.25
  Q 73.07 259.31 72.91 356.43
  Q 72.90 363.50 72.56 373.83
  Q 72.16 386.07 72.47 391.25
  Q 72.92 398.85 72.23 403.49
  Q 72.29 389.73 72.21 376.14
  Q 72.20 374.97 71.18 375.54
  Q 71.05 375.60 70.31 375.53
  L 70.35 143.29
  Q 70.47 143.16 70.61 142.87
  Q 70.92 142.25 70.88 142.94
  Q 70.86 143.18 71.17 143.28
  A 0.67 0.67 0.0 0 0 72.05 142.68
  L 72.42 135.78
  Z"
/>
<path fill="#9ef94d" d="
  M 196.11 177.52
  Q 195.69 176.75 194.83 176.75
  L 171.52 176.69
  A 0.79 0.79 0.0 0 0 170.73 177.48
  L 170.81 188.48
  A 1.16 1.16 0.0 0 0 171.99 189.63
  L 193.20 189.25
  Q 194.32 189.23 193.51 190.01
  C 189.21 194.11 185.33 195.48 179.17 195.68
  Q 172.28 195.91 165.27 195.65
  C 161.82 195.53 158.45 194.67 156.67 191.42
  C 156.18 190.53 156.18 189.36 155.85 188.37
  Q 155.66 187.81 155.07 187.77
  C 152.48 187.60 149.38 188.22 148.59 185.07
  Q 148.43 184.44 148.51 180.53
  Q 148.67 172.08 148.57 163.22
  Q 148.54 160.27 150.47 162.50
  Q 151.70 163.93 153.83 163.10
  C 155.99 162.26 156.64 159.51 156.33 157.44
  A 1.95 1.94 4.7 0 0 155.00 155.88
  Q 151.92 154.90 149.11 156.81
  A 0.57 0.57 0.0 0 1 148.22 156.30
  Q 148.51 152.17 148.55 148.61
  C 148.60 142.69 159.64 136.67 163.90 136.29
  Q 170.90 135.67 179.64 135.86
  Q 183.96 135.95 187.58 137.69
  Q 197.83 142.64 202.87 153.88
  C 204.04 156.49 203.63 158.88 204.28 161.56
  Q 205.91 168.29 203.86 174.90
  Q 201.81 181.53 198.07 186.09
  Q 196.42 188.12 196.46 185.50
  Q 196.50 182.58 196.44 178.88
  Q 196.43 178.12 196.11 177.52
  Z
  M 168.07 157.43
  Q 168.50 161.49 167.93 165.75
  C 167.71 167.34 168.18 168.79 168.59 170.32
  Q 168.91 171.47 170.10 171.46
  L 191.50 171.34
  A 0.73 0.73 0.0 0 0 192.22 170.62
  Q 192.32 160.57 192.18 150.17
  Q 192.16 149.18 191.69 148.34
  Q 191.45 147.91 190.99 147.73
  Q 187.96 146.56 185.08 146.99
  Q 179.81 147.77 174.10 147.06
  Q 171.53 146.73 169.22 147.53
  Q 168.72 147.70 168.51 148.19
  Q 167.09 151.46 168.16 154.94
  C 168.45 155.88 167.98 156.54 168.07 157.43
  Z"
/>
<path fill="#9ef94d" d="
  M 355.55 188.43
  C 354.91 191.12 352.64 195.05 349.48 195.29
  Q 337.63 196.22 327.49 195.45
  Q 325.28 195.28 323.07 194.08
  Q 314.34 189.33 309.72 180.38
  C 306.36 173.89 305.17 167.15 306.96 160.37
  C 307.56 158.12 307.43 155.88 308.48 153.69
  C 311.76 146.82 316.53 141.29 323.27 137.72
  Q 326.08 136.23 329.98 136.08
  Q 339.42 135.71 347.30 136.10
  Q 348.35 136.15 349.43 136.58
  C 353.19 138.08 363.63 143.96 362.88 149.08
  Q 362.51 151.67 361.97 154.05
  Q 361.89 154.43 362.01 154.79
  L 362.67 156.73
  A 0.34 0.34 0.0 0 1 362.31 157.18
  Q 359.78 156.94 358.23 155.10
  A 0.86 0.85 52.8 0 0 357.09 154.94
  Q 353.54 157.36 354.95 161.33
  C 356.17 164.74 359.72 162.84 361.66 161.63
  Q 362.46 161.13 362.45 162.07
  Q 362.38 173.01 362.58 184.34
  C 362.65 188.32 358.85 187.40 356.43 187.66
  Q 355.71 187.73 355.55 188.43
  Z
  M 343.1729 148.6575
  A 1.49 1.49 0.0 0 0 341.6777 147.1727
  L 320.2779 147.2474
  A 1.49 1.49 0.0 0 0 318.7931 148.7426
  L 318.8671 169.9425
  A 1.49 1.49 0.0 0 0 320.3623 171.4273
  L 341.7621 171.3526
  A 1.49 1.49 0.0 0 0 343.2469 169.8574
  L 343.1729 148.6575
  Z
  M 347.1971 178.2242
  A 1.47 1.47 0.0 0 0 345.7322 176.7491
  L 323.3524 176.6710
  A 1.47 1.47 0.0 0 0 321.8773 178.1358
  L 321.8429 187.9758
  A 1.47 1.47 0.0 0 0 323.3078 189.4509
  L 345.6876 189.5290
  A 1.47 1.47 0.0 0 0 347.1627 188.0642
  L 347.1971 178.2242
  Z"
/>
<path fill="#020101" d="
  M 228.97 181.97
  C 229.98 171.65 234.66 148.40 247.88 146.62
  Q 256.24 145.50 262.49 146.45
  Q 269.24 147.47 273.73 154.15
  Q 276.75 158.65 278.03 162.72
  Q 282.37 176.52 282.64 191.76
  Q 283.18 220.97 282.91 256.25
  C 282.85 264.89 283.45 275.29 273.05 278.21
  Q 270.65 278.89 262.71 279.09
  Q 253.10 279.33 243.00 279.01
  Q 232.47 278.68 229.27 269.55
  C 228.23 266.59 228.11 262.65 228.09 259.50
  Q 227.82 229.87 228.00 199.75
  Q 228.05 191.25 228.97 181.97
  Z
  M 249.74 148.53
  Q 248.89 148.81 248.31 148.75
  Q 243.44 149.24 240.42 153.68
  C 237.35 158.20 235.23 162.06 233.74 167.41
  Q 230.41 179.34 230.34 194.96
  Q 230.19 229.10 230.28 261.46
  A 0.45 0.45 0.0 0 0 230.89 261.88
  Q 239.44 258.73 248.17 258.83
  A 0.38 0.38 0.0 0 0 248.55 258.45
  L 248.70 218.72
  Q 248.92 215.70 249.46 217.73
  L 249.31 257.63
  Q 249.31 258.73 250.41 258.74
  L 261.35 258.83
  A 0.44 0.43 -0.0 0 0 261.79 258.40
  L 261.92 148.99
  Q 261.92 148.50 261.42 148.50
  L 249.74 148.53
  Z
  M 276.19 163.74
  C 274.51 158.80 269.43 149.37 263.99 148.78
  A 0.79 0.79 0.0 0 0 263.12 149.56
  L 263.05 257.74
  A 1.01 1.01 0.0 0 0 264.06 258.75
  Q 272.10 258.71 279.86 261.82
  A 0.65 0.65 0.0 0 0 280.76 261.22
  Q 280.55 230.22 280.65 199.35
  C 280.69 187.32 280.08 175.20 276.19 163.74
  Z
  M 279.93 263.19
  Q 272.45 260.15 263.69 259.63
  Q 263.10 259.60 263.11 260.18
  L 263.13 276.01
  Q 263.13 276.64 263.75 276.69
  Q 269.70 277.20 272.59 276.15
  Q 281.03 273.08 280.57 264.10
  A 1.03 1.03 0.0 0 0 279.93 263.19
  Z
  M 261.9008 260.5327
  A 0.64 0.64 0.0 0 0 261.2642 259.8893
  L 250.1043 259.8309
  A 0.64 0.64 0.0 0 0 249.4610 260.4675
  L 249.3792 276.0873
  A 0.64 0.64 0.0 0 0 250.0158 276.7307
  L 261.1757 276.7891
  A 0.64 0.64 0.0 0 0 261.8190 276.1525
  L 261.9008 260.5327
  Z
  M 231.05 263.34
  A 1.43 1.42 76.4 0 0 230.21 264.73
  Q 230.78 273.26 238.31 276.03
  Q 241.64 277.26 247.99 276.65
  Q 248.53 276.60 248.53 276.06
  L 248.57 260.26
  A 0.29 0.28 2.0 0 0 248.29 259.97
  Q 238.76 259.90 231.05 263.34
  Z"
/>
<path fill="#020101" d="
  M 168.07 157.43
  C 167.98 156.54 168.45 155.88 168.16 154.94
  Q 167.09 151.46 168.51 148.19
  Q 168.72 147.70 169.22 147.53
  Q 171.53 146.73 174.10 147.06
  Q 179.81 147.77 185.08 146.99
  Q 187.96 146.56 190.99 147.73
  Q 191.45 147.91 191.69 148.34
  Q 192.16 149.18 192.18 150.17
  Q 192.32 160.57 192.22 170.62
  A 0.73 0.73 0.0 0 1 191.50 171.34
  L 170.10 171.46
  Q 168.91 171.47 168.59 170.32
  C 168.18 168.79 167.71 167.34 167.93 165.75
  Q 168.50 161.49 168.07 157.43
  Z
  M 187.23 151.75
  L 187.26 153.02
  Q 187.29 153.75 188.02 153.77
  L 189.02 153.81
  Q 189.81 153.84 189.92 153.06
  Q 190.48 148.88 186.52 148.56
  Q 185.26 148.45 185.21 149.80
  Q 185.18 150.42 185.78 150.60
  L 186.50 150.81
  Q 187.21 151.01 187.23 151.75
  Z
  M 169.83 154.03
  L 175.09 149.72
  A 0.10 0.10 0.0 0 0 175.10 149.58
  L 175.07 149.54
  A 3.30 2.27 -39.4 0 0 171.08 149.88
  L 170.77 150.13
  A 3.30 2.27 -39.4 0 0 169.66 153.98
  L 169.69 154.02
  A 0.10 0.10 0.0 0 0 169.83 154.03
  Z
  M 184.38 151.67
  C 184.14 151.48 184.00 151.37 183.81 151.12
  A 0.45 0.45 0.0 0 0 183.13 151.10
  Q 182.75 151.52 182.76 152.05
  A 0.58 0.58 0.0 0 0 183.53 152.59
  L 184.26 152.34
  Q 184.92 152.11 184.38 151.67
  Z
  M 176.00 152.79
  L 175.89 153.10
  Q 175.73 153.54 176.19 153.42
  Q 177.41 153.10 177.74 151.87
  Q 177.87 151.40 177.38 151.35
  L 176.36 151.25
  Q 175.93 151.21 175.96 151.64
  L 176.03 152.54
  Q 176.04 152.66 176.00 152.79
  Z
  M 174.87 152.75
  Q 174.58 151.87 174.20 152.71
  C 173.53 154.18 171.74 156.44 171.98 158.06
  Q 172.25 159.87 172.85 158.15
  Q 173.64 155.90 174.87 154.49
  Q 175.28 154.02 175.08 153.42
  L 174.87 152.75
  Z
  M 185.58 153.79
  Q 185.14 153.59 185.15 154.07
  Q 185.17 154.54 185.38 154.97
  Q 185.50 155.22 185.77 155.24
  Q 186.03 155.25 186.29 155.23
  A 0.46 0.46 0.0 0 0 186.56 154.45
  Q 186.14 154.05 185.58 153.79
  Z
  M 189.37 156.78
  A 0.38 0.38 0.0 0 0 188.63 156.69
  L 187.31 161.05
  A 0.38 0.38 0.0 0 0 187.61 161.54
  L 189.17 161.77
  A 0.38 0.38 0.0 0 0 189.61 161.38
  L 189.37 156.78
  Z
  M 173.42 164.04
  Q 174.59 165.37 174.69 167.04
  Q 172.36 166.38 170.20 164.75
  A 0.60 0.60 0.0 0 0 169.24 165.26
  Q 169.50 169.89 174.28 168.63
  Q 174.92 168.46 174.69 167.04
  Q 175.63 166.54 175.78 165.98
  Q 175.91 165.48 175.46 165.22
  L 173.42 164.04
  Q 172.67 162.36 172.71 161.15
  Q 172.78 158.93 171.94 160.98
  Q 171.04 163.21 173.42 164.04
  Z
  M 187.69 165.63
  A 0.51 0.50 -27.6 0 1 187.52 165.58
  L 185.54 164.56
  A 0.75 0.75 0.0 0 0 184.47 165.05
  Q 184.42 165.24 184.44 165.44
  Q 184.52 166.17 185.20 166.47
  Q 186.43 167.01 186.60 168.40
  Q 186.67 168.96 187.20 169.14
  C 190.02 170.09 190.41 167.53 190.47 165.60
  Q 190.48 165.48 190.44 165.37
  Q 190.41 165.28 190.38 165.19
  Q 190.20 164.69 190.00 165.18
  Q 189.64 166.02 187.69 165.63
  Z
  M 177.5050 168.6357
  A 0.79 0.58 128.8 0 0 178.4520 168.3834
  A 0.79 0.58 128.8 0 0 178.4950 167.4043
  A 0.79 0.58 128.8 0 0 177.5480 167.6566
  A 0.79 0.58 128.8 0 0 177.5050 168.6357
  Z"
/>
<path fill="#020101" d="
  M 343.2469 169.8574
  A 1.49 1.49 0.0 0 1 341.7621 171.3526
  L 320.3623 171.4273
  A 1.49 1.49 0.0 0 1 318.8671 169.9425
  L 318.7931 148.7426
  A 1.49 1.49 0.0 0 1 320.2779 147.2474
  L 341.6777 147.1727
  A 1.49 1.49 0.0 0 1 343.1729 148.6575
  L 343.2469 169.8574
  Z
  M 335.83 148.99
  L 339.97 154.35
  A 0.03 0.03 0.0 0 0 340.02 154.36
  L 340.05 154.33
  A 3.28 2.81 52.3 0 0 340.26 150.02
  L 340.09 149.80
  A 3.28 2.81 52.3 0 0 335.86 148.92
  L 335.83 148.95
  A 0.03 0.03 0.0 0 0 335.83 148.99
  Z
  M 320.88 154.54
  L 325.92 149.20
  A 0.13 0.13 0.0 0 0 325.92 149.02
  L 325.86 148.97
  A 3.63 2.22 -46.6 0 0 321.76 150.09
  L 321.52 150.33
  A 3.63 2.22 -46.6 0 0 320.64 154.49
  L 320.69 154.54
  A 0.13 0.13 0.0 0 0 320.88 154.54
  Z
  M 335.2647 152.2492
  A 0.97 0.70 15.5 0 0 334.5171 151.3155
  A 0.97 0.70 15.5 0 0 333.3953 151.7308
  A 0.97 0.70 15.5 0 0 334.1429 152.6645
  A 0.97 0.70 15.5 0 0 335.2647 152.2492
  Z
  M 329.4080 152.2781
  A 1.48 0.67 7.3 0 0 328.0251 151.4254
  A 1.48 0.67 7.3 0 0 326.4720 151.9019
  A 1.48 0.67 7.3 0 0 327.8549 152.7546
  A 1.48 0.67 7.3 0 0 329.4080 152.2781
  Z
  M 324.94 164.51
  Q 325.57 166.30 326.41 166.61
  Q 327.14 166.89 327.57 166.17
  A 0.67 0.66 24.0 0 0 327.19 165.19
  L 324.94 164.51
  C 323.76 160.69 324.42 157.44 324.67 153.60
  Q 324.69 153.27 324.36 153.29
  L 324.04 153.30
  A 0.55 0.54 88.9 0 0 323.53 153.84
  Q 323.50 158.26 323.12 162.75
  Q 322.96 164.58 324.94 164.51
  Z
  M 337.77 164.55
  Q 337.83 163.72 338.68 163.51
  A 0.93 0.93 0.0 0 0 339.39 162.72
  Q 339.77 159.75 339.51 156.88
  A 1.18 1.17 20.0 0 0 339.17 156.16
  Q 338.29 155.26 337.78 154.10
  A 0.77 0.75 72.1 0 0 336.94 153.66
  Q 336.01 153.83 336.61 154.40
  C 337.60 155.34 338.75 156.52 338.79 157.98
  Q 338.87 160.80 337.77 163.40
  Q 337.57 163.85 337.17 164.14
  C 336.42 164.69 336.25 165.61 336.69 166.42
  Q 337.20 167.36 337.41 168.42
  Q 337.53 168.98 338.08 169.14
  Q 341.14 170.00 341.43 166.59
  Q 341.50 165.80 340.71 165.70
  L 338.50 165.44
  A 0.83 0.82 5.7 0 1 337.77 164.55
  Z
  M 326.23 167.74
  L 320.64 164.63
  A 0.04 0.04 0.0 0 0 320.58 164.64
  L 320.55 164.70
  A 3.06 2.65 29.1 0 0 321.93 168.51
  L 322.25 168.68
  A 3.06 2.65 29.1 0 0 326.21 167.86
  L 326.24 167.79
  A 0.04 0.04 0.0 0 0 326.23 167.74
  Z
  M 333.9264 168.6281
  A 0.87 0.71 99.5 0 0 334.7703 167.8872
  A 0.87 0.71 99.5 0 0 334.2136 166.9119
  A 0.87 0.71 99.5 0 0 333.3697 167.6528
  A 0.87 0.71 99.5 0 0 333.9264 168.6281
  Z
  M 328.58 168.33
  Q 328.75 168.33 328.91 168.26
  A 0.39 0.39 0.0 0 0 329.05 167.65
  Q 328.49 166.96 328.04 167.70
  Q 327.89 167.95 327.83 168.24
  Q 327.71 168.88 328.21 168.46
  Q 328.37 168.33 328.58 168.33
  Z"
/>
<path fill="#cdecf9" d="
  M 249.46 217.73
  L 249.74 148.53
  L 261.42 148.50
  Q 261.92 148.50 261.92 148.99
  L 261.79 258.40
  A 0.44 0.43 -0.0 0 1 261.35 258.83
  L 250.41 258.74
  Q 249.31 258.73 249.31 257.63
  L 249.46 217.73
  Z"
/>
<path fill="#cdecf9" d="
  M 335.83 148.99
  A 0.03 0.03 0.0 0 1 335.83 148.95
  L 335.86 148.92
  A 3.28 2.81 52.3 0 1 340.09 149.80
  L 340.26 150.02
  A 3.28 2.81 52.3 0 1 340.05 154.33
  L 340.02 154.36
  A 0.03 0.03 0.0 0 1 339.97 154.35
  L 335.83 148.99
  Z"
/>
<path fill="#cdecf9" d="
  M 186.50 150.81
  L 185.78 150.60
  Q 185.18 150.42 185.21 149.80
  Q 185.26 148.45 186.52 148.56
  Q 190.48 148.88 189.92 153.06
  Q 189.81 153.84 189.02 153.81
  L 188.02 153.77
  Q 187.29 153.75 187.26 153.02
  L 187.23 151.75
  Q 187.21 151.01 186.50 150.81
  Z"
/>
<path fill="#7f606b" d="
  M 249.74 148.53
  L 249.46 217.73
  Q 248.92 215.70 248.70 218.72
  Q 248.55 208.61 248.59 198.50
  Q 248.60 192.95 248.21 184.00
  Q 247.85 175.84 248.15 169.50
  Q 248.74 157.10 248.31 148.75
  Q 248.89 148.81 249.74 148.53
  Z"
/>
<path fill="#cdecf9" d="
  M 320.88 154.54
  A 0.13 0.13 0.0 0 1 320.69 154.54
  L 320.64 154.49
  A 3.63 2.22 -46.6 0 1 321.52 150.33
  L 321.76 150.09
  A 3.63 2.22 -46.6 0 1 325.86 148.97
  L 325.92 149.02
  A 0.13 0.13 0.0 0 1 325.92 149.20
  L 320.88 154.54
  Z"
/>
<path fill="#cdecf9" d="
  M 248.31 148.75
  Q 248.74 157.10 248.15 169.50
  Q 247.85 175.84 248.21 184.00
  Q 248.60 192.95 248.59 198.50
  Q 248.55 208.61 248.70 218.72
  L 248.55 258.45
  A 0.38 0.38 0.0 0 1 248.17 258.83
  Q 239.44 258.73 230.89 261.88
  A 0.45 0.45 0.0 0 1 230.28 261.46
  Q 230.19 229.10 230.34 194.96
  Q 230.41 179.34 233.74 167.41
  C 235.23 162.06 237.35 158.20 240.42 153.68
  Q 243.44 149.24 248.31 148.75
  Z"
/>
<path fill="#cdecf9" d="
  M 263.99 148.78
  C 269.43 149.37 274.51 158.80 276.19 163.74
  C 280.08 175.20 280.69 187.32 280.65 199.35
  Q 280.55 230.22 280.76 261.22
  A 0.65 0.65 0.0 0 1 279.86 261.82
  Q 272.10 258.71 264.06 258.75
  A 1.01 1.01 0.0 0 1 263.05 257.74
  L 263.12 149.56
  A 0.79 0.79 0.0 0 1 263.99 148.78
  Z"
/>
<path fill="#cdecf9" d="
  M 169.83 154.03
  A 0.10 0.10 0.0 0 1 169.69 154.02
  L 169.66 153.98
  A 3.30 2.27 -39.4 0 1 170.77 150.13
  L 171.08 149.88
  A 3.30 2.27 -39.4 0 1 175.07 149.54
  L 175.10 149.58
  A 0.10 0.10 0.0 0 1 175.09 149.72
  L 169.83 154.03
  Z"
/>
<path fill="#cdecf9" d="
  M 183.81 151.12
  C 184.00 151.37 184.14 151.48 184.38 151.67
  Q 184.92 152.11 184.26 152.34
  L 183.53 152.59
  A 0.58 0.58 0.0 0 1 182.76 152.05
  Q 182.75 151.52 183.13 151.10
  A 0.45 0.45 0.0 0 1 183.81 151.12
  Z"
/>
<path fill="#e389fb" d="
  M 145.38 151.54
  A 0.72 0.72 0.0 0 1 146.36 151.39
  Q 146.68 151.61 146.68 152.04
  Q 146.89 166.97 146.72 180.87
  Q 146.70 182.32 145.81 181.17
  Q 143.27 177.89 142.51 174.30
  Q 140.60 165.22 142.89 156.61
  Q 143.63 153.84 145.38 151.54
  Z"
/>
<path fill="#cdecf9" d="
  M 176.03 152.54
  L 175.96 151.64
  Q 175.93 151.21 176.36 151.25
  L 177.38 151.35
  Q 177.87 151.40 177.74 151.87
  Q 177.41 153.10 176.19 153.42
  Q 175.73 153.54 175.89 153.10
  L 176.00 152.79
  Q 176.04 152.66 176.03 152.54
  Z"
/>
<ellipse fill="#cdecf9" cx="0.00" cy="0.00" transform="translate(334.33,151.99) rotate(15.5)" rx="0.97" ry="0.70"/>
<path fill="#e389fb" d="
  M 364.22 151.20
  A 0.03 0.03 0.0 0 1 364.25 151.17
  L 364.30 151.17
  A 13.67 4.64 89.9 0 1 368.97 164.84
  L 368.97 168.06
  A 13.67 4.64 89.9 0 1 364.36 181.73
  L 364.31 181.73
  A 0.03 0.03 0.0 0 1 364.28 181.70
  L 364.22 151.20
  Z"
/>
<ellipse fill="#cdecf9" cx="0.00" cy="0.00" transform="translate(327.94,152.09) rotate(7.3)" rx="1.48" ry="0.67"/>
<path fill="#cdecf9" d="
  M 174.87 152.75
  L 175.08 153.42
  Q 175.28 154.02 174.87 154.49
  Q 173.64 155.90 172.85 158.15
  Q 172.25 159.87 171.98 158.06
  C 171.74 156.44 173.53 154.18 174.20 152.71
  Q 174.58 151.87 174.87 152.75
  Z"
/>
<path fill="#cdecf9" d="
  M 324.94 164.51
  Q 322.96 164.58 323.12 162.75
  Q 323.50 158.26 323.53 153.84
  A 0.55 0.54 88.9 0 1 324.04 153.30
  L 324.36 153.29
  Q 324.69 153.27 324.67 153.60
  C 324.42 157.44 323.76 160.69 324.94 164.51
  Z"
/>
<path fill="#cdecf9" d="
  M 338.50 165.44
  L 340.71 165.70
  Q 341.50 165.80 341.43 166.59
  Q 341.14 170.00 338.08 169.14
  Q 337.53 168.98 337.41 168.42
  Q 337.20 167.36 336.69 166.42
  C 336.25 165.61 336.42 164.69 337.17 164.14
  Q 337.57 163.85 337.77 163.40
  Q 338.87 160.80 338.79 157.98
  C 338.75 156.52 337.60 155.34 336.61 154.40
  Q 336.01 153.83 336.94 153.66
  A 0.77 0.75 72.1 0 1 337.78 154.10
  Q 338.29 155.26 339.17 156.16
  A 1.18 1.17 20.0 0 1 339.51 156.88
  Q 339.77 159.75 339.39 162.72
  A 0.93 0.93 0.0 0 1 338.68 163.51
  Q 337.83 163.72 337.77 164.55
  A 0.83 0.82 5.7 0 0 338.50 165.44
  Z"
/>
<path fill="#cdecf9" d="
  M 185.58 153.79
  Q 186.14 154.05 186.56 154.45
  A 0.46 0.46 0.0 0 1 186.29 155.23
  Q 186.03 155.25 185.77 155.24
  Q 185.50 155.22 185.38 154.97
  Q 185.17 154.54 185.15 154.07
  Q 185.14 153.59 185.58 153.79
  Z"
/>
<path fill="#cdecf9" d="
  M 189.37 156.78
  L 189.61 161.38
  A 0.38 0.38 0.0 0 1 189.17 161.77
  L 187.61 161.54
  A 0.38 0.38 0.0 0 1 187.31 161.05
  L 188.63 156.69
  A 0.38 0.38 0.0 0 1 189.37 156.78
  Z"
/>
<ellipse fill="#cdecf9" cx="0.00" cy="0.00" transform="translate(357.35,159.36) rotate(86.1)" rx="2.48" ry="1.17"/>
<path fill="#cdecf9" d="
  M 154.14 157.50
  A 0.72 0.72 0.0 0 1 154.71 158.35
  L 154.51 159.39
  A 2.78 1.40 -78.8 0 1 152.59 161.84
  L 152.04 161.73
  A 2.78 1.40 -78.8 0 1 151.21 158.73
  L 151.42 157.69
  A 0.72 0.72 0.0 0 1 152.26 157.13
  L 154.14 157.50
  Z"
/>
<path fill="#cdecf9" d="
  M 173.42 164.04
  Q 171.04 163.21 171.94 160.98
  Q 172.78 158.93 172.71 161.15
  Q 172.67 162.36 173.42 164.04
  Z"
/>
<path fill="#cdecf9" d="
  M 173.42 164.04
  L 175.46 165.22
  Q 175.91 165.48 175.78 165.98
  Q 175.63 166.54 174.69 167.04
  Q 174.59 165.37 173.42 164.04
  Z"
/>
<path fill="#cdecf9" d="
  M 187.69 165.63
  Q 189.64 166.02 190.00 165.18
  Q 190.20 164.69 190.38 165.19
  Q 190.41 165.28 190.44 165.37
  Q 190.48 165.48 190.47 165.60
  C 190.41 167.53 190.02 170.09 187.20 169.14
  Q 186.67 168.96 186.60 168.40
  Q 186.43 167.01 185.20 166.47
  Q 184.52 166.17 184.44 165.44
  Q 184.42 165.24 184.47 165.05
  A 0.75 0.75 0.0 0 1 185.54 164.56
  L 187.52 165.58
  A 0.51 0.50 -27.6 0 0 187.69 165.63
  Z"
/>
<path fill="#cdecf9" d="
  M 324.94 164.51
  L 327.19 165.19
  A 0.67 0.66 24.0 0 1 327.57 166.17
  Q 327.14 166.89 326.41 166.61
  Q 325.57 166.30 324.94 164.51
  Z"
/>
<path fill="#cdecf9" d="
  M 174.69 167.04
  Q 174.92 168.46 174.28 168.63
  Q 169.50 169.89 169.24 165.26
  A 0.60 0.60 0.0 0 1 170.20 164.75
  Q 172.36 166.38 174.69 167.04
  Z"
/>
<path fill="#cdecf9" d="
  M 326.23 167.74
  A 0.04 0.04 0.0 0 1 326.24 167.79
  L 326.21 167.86
  A 3.06 2.65 29.1 0 1 322.25 168.68
  L 321.93 168.51
  A 3.06 2.65 29.1 0 1 320.55 164.70
  L 320.58 164.64
  A 0.04 0.04 0.0 0 1 320.64 164.63
  L 326.23 167.74
  Z"
/>
<ellipse fill="#cdecf9" cx="0.00" cy="0.00" transform="translate(334.07,167.77) rotate(99.5)" rx="0.87" ry="0.71"/>
<ellipse fill="#cdecf9" cx="0.00" cy="0.00" transform="translate(178.00,168.02) rotate(128.8)" rx="0.79" ry="0.58"/>
<path fill="#cdecf9" d="
  M 328.58 168.33
  Q 328.37 168.33 328.21 168.46
  Q 327.71 168.88 327.83 168.24
  Q 327.89 167.95 328.04 167.70
  Q 328.49 166.96 329.05 167.65
  A 0.39 0.39 0.0 0 1 328.91 168.26
  Q 328.75 168.33 328.58 168.33
  Z"
/>
<path fill="#020101" d="
  M 347.1627 188.0642
  A 1.47 1.47 0.0 0 1 345.6876 189.5290
  L 323.3078 189.4509
  A 1.47 1.47 0.0 0 1 321.8429 187.9758
  L 321.8773 178.1358
  A 1.47 1.47 0.0 0 1 323.3524 176.6710
  L 345.7322 176.7491
  A 1.47 1.47 0.0 0 1 347.1971 178.2242
  L 347.1627 188.0642
  Z
  M 345.9013 179.6603
  A 0.83 0.83 0.0 0 0 345.0670 178.8347
  L 323.9073 178.9455
  A 0.83 0.83 0.0 0 0 323.0816 179.7798
  L 323.1187 186.8597
  A 0.83 0.83 0.0 0 0 323.9530 187.6853
  L 345.1127 187.5745
  A 0.83 0.83 0.0 0 0 345.9384 186.7402
  L 345.9013 179.6603
  Z"
/>
<path fill="#5161e6" d="
  M 193.31 179.27
  Q 193.91 183.14 192.87 187.13
  L 173.06 187.44
  Q 172.35 187.45 172.33 186.73
  L 172.20 179.56
  Q 172.19 178.93 172.82 178.92
  Q 179.24 178.78 187.75 178.80
  Q 191.16 178.80 193.31 179.27
  Z"
/>
<rect fill="#5161e6" x="-11.41" y="-4.37" transform="translate(334.51,183.26) rotate(-0.3)" width="22.82" height="8.74" rx="0.83"/>
<path fill="#cdecf9" d="
  M 192.87 187.13
  Q 193.91 183.14 193.31 179.27
  L 194.47 179.15
  A 0.76 0.76 0.0 0 1 195.31 179.97
  L 194.79 186.35
  Q 194.75 186.76 194.35 186.84
  L 192.87 187.13
  Z"
/>
<path fill="#7f606b" d="
  M 152.36 192.22
  Q 153.14 193.20 153.97 193.71
  Q 154.28 265.94 153.76 337.99
  Q 153.69 347.91 153.76 358.00
  Q 153.99 392.24 153.98 426.47
  C 153.98 430.30 153.58 433.81 153.11 437.51
  Q 152.72 437.11 152.30 437.10
  Q 152.15 437.10 152.23 437.23
  Q 152.30 437.34 152.22 437.48
  Q 152.09 437.73 151.76 437.64
  C 152.14 433.67 152.46 429.87 152.47 425.77
  Q 152.58 342.17 152.31 256.75
  C 152.27 242.98 152.93 226.98 152.63 213.75
  Q 152.27 198.23 152.36 192.22
  Z"
/>
<path fill="#cdecf9" d="
  M 279.93 263.19
  A 1.03 1.03 0.0 0 1 280.57 264.10
  Q 281.03 273.08 272.59 276.15
  Q 269.70 277.20 263.75 276.69
  Q 263.13 276.64 263.13 276.01
  L 263.11 260.18
  Q 263.10 259.60 263.69 259.63
  Q 272.45 260.15 279.93 263.19
  Z"
/>
<rect fill="#cdecf9" x="-6.22" y="-8.45" transform="translate(255.64,268.31) rotate(0.3)" width="12.44" height="16.90" rx="0.64"/>
<path fill="#cdecf9" d="
  M 231.05 263.34
  Q 238.76 259.90 248.29 259.97
  A 0.29 0.28 2.0 0 1 248.57 260.26
  L 248.53 276.06
  Q 248.53 276.60 247.99 276.65
  Q 241.64 277.26 238.31 276.03
  Q 230.78 273.26 230.21 264.73
  A 1.43 1.42 76.4 0 1 231.05 263.34
  Z"
/>
<path fill="#020101" d="
  M 340.25 395.61
  A 13.87 13.87 0.0 0 1 326.38 409.48
  L 184.62 409.48
  A 13.87 13.87 0.0 0 1 170.75 395.61
  L 170.75 303.45
  A 13.87 13.87 0.0 0 1 184.62 289.58
  L 326.38 289.58
  A 13.87 13.87 0.0 0 1 340.25 303.45
  L 340.25 395.61
  Z
  M 338.26 303.00
  A 11.46 11.46 0.0 0 0 326.80 291.54
  L 184.42 291.54
  A 11.46 11.46 0.0 0 0 172.96 303.00
  L 172.96 395.98
  A 11.46 11.46 0.0 0 0 184.42 407.44
  L 326.80 407.44
  A 11.46 11.46 0.0 0 0 338.26 395.98
  L 338.26 303.00
  Z"
/>
<rect fill="#e389fb" x="172.96" y="291.54" width="165.30" height="115.90" rx="11.46"/>
<path fill="#96d6ef" d="
  M 168.13 441.64
  L 168.31 473.21
  Q 159.38 473.63 150.74 471.19
  Q 145.42 469.68 139.26 466.27
  C 132.32 462.42 125.33 458.93 119.36 453.37
  Q 113.71 448.12 107.69 440.92
  Q 104.93 437.63 103.00 434.13
  Q 98.95 426.74 94.99 419.49
  C 93.90 417.50 93.62 415.44 92.64 413.47
  Q 91.43 411.02 92.08 413.67
  C 92.56 415.62 93.14 417.45 94.06 419.29
  Q 101.17 433.58 105.54 439.57
  Q 110.80 446.79 118.61 454.00
  C 125.22 460.10 132.95 463.59 140.47 468.24
  Q 143.30 469.99 146.18 470.99
  Q 149.46 472.12 152.35 473.08
  Q 154.01 473.63 152.27 473.61
  C 142.80 473.49 133.46 473.60 124.04 471.77
  C 104.41 467.96 85.88 453.32 78.19 435.03
  Q 74.64 426.59 73.58 419.19
  Q 72.93 414.71 72.51 409.98
  Q 72.42 409.09 73.32 409.09
  L 89.41 409.07
  Q 90.06 409.07 90.53 409.53
  Q 97.33 416.20 101.48 418.83
  Q 124.09 433.20 150.60 438.31
  Q 152.26 438.63 151.81 440.26
  Q 148.87 450.96 143.92 462.30
  Q 142.99 464.43 142.76 465.51
  Q 141.99 469.06 143.48 465.73
  Q 148.92 453.53 153.13 439.71
  A 0.64 0.63 -76.3 0 1 153.84 439.27
  L 168.13 441.64
  Z"
/>
<path fill="#96d6ef" d="
  M 418.10 416.91
  Q 419.20 414.49 419.21 411.51
  A 2.34 2.34 0.0 0 1 421.51 409.18
  L 437.66 408.89
  A 0.62 0.61 3.6 0 1 438.28 409.59
  C 437.65 414.39 437.93 419.12 436.65 423.98
  Q 433.86 434.61 429.54 441.67
  Q 417.49 461.39 395.12 469.59
  Q 391.71 470.84 387.64 471.59
  Q 382.55 472.53 380.50 472.72
  Q 372.51 473.47 359.45 473.39
  Q 358.33 473.39 359.30 472.83
  Q 360.37 472.21 361.56 471.94
  Q 366.00 470.95 369.43 468.98
  Q 375.95 465.24 382.80 461.13
  C 389.45 457.15 395.12 451.21 400.66 445.67
  Q 405.18 441.15 408.02 436.31
  Q 413.71 426.59 418.10 416.91
  Z"
/>
<path fill="#96d6ef" d="
  M 169.25 473.27
  L 169.33 441.95
  L 341.20 441.95
  L 341.48 472.63
  Q 341.48 472.81 341.66 472.81
  L 341.93 472.81
  Q 342.39 472.81 342.38 472.35
  L 342.04 442.09
  Q 342.24 441.67 342.69 441.62
  Q 349.67 440.82 357.21 439.63
  Q 357.74 439.55 357.91 440.06
  Q 362.43 453.87 368.15 466.84
  Q 368.23 467.03 368.43 466.95
  L 368.68 466.84
  Q 368.83 466.78 368.77 466.63
  Q 364.04 455.18 360.87 446.22
  Q 359.67 442.84 358.88 439.31
  A 0.55 0.54 -12.2 0 1 359.31 438.65
  Q 378.20 435.03 395.51 426.80
  C 401.92 423.75 407.40 420.29 413.17 416.20
  Q 415.13 414.80 417.10 412.72
  Q 418.33 411.43 418.31 413.21
  Q 418.30 414.86 417.59 416.32
  Q 414.01 423.71 409.25 432.36
  Q 405.51 439.15 401.14 443.86
  Q 396.12 449.26 390.79 454.04
  Q 386.66 457.74 379.96 461.77
  Q 371.13 467.09 367.82 468.59
  Q 364.76 469.97 357.01 472.04
  Q 354.03 472.84 350.94 472.92
  Q 348.05 472.99 344.75 472.99
  Q 256.95 473.09 169.25 473.27
  Z"
/>
<path fill="#7f606b" d="
  M 168.13 441.64
  Q 168.47 441.94 169.33 441.95
  L 169.25 473.27
  Q 169.16 473.14 168.31 473.21
  L 168.13 441.64
  Z"
/>
<path fill="#7f606b" d="
  M 341.20 441.95
  L 342.04 442.09
  L 342.38 472.35
  Q 342.39 472.81 341.93 472.81
  L 341.66 472.81
  Q 341.48 472.81 341.48 472.63
  L 341.20 441.95
  Z"
/>
<path fill="#7f606b" d="
  M 121.64 473.54
  Q 123.69 473.43 122.86 475.57
  L 121.64 473.54
  Z"
/>
<path fill="#cdecf9" d="
  M 385.60 512.00
  L 125.42 512.00
  L 125.43 476.17
  Q 125.43 475.07 126.53 475.11
  Q 135.61 475.47 145.05 475.48
  Q 260.36 475.54 375.23 475.40
  Q 379.78 475.39 385.17 475.12
  A 0.53 0.53 0.0 0 1 385.73 475.65
  L 385.60 512.00
  Z"
/>
</svg>
