<svg xmlns="http://www.w3.org/2000/svg" xmlns:xlink="http://www.w3.org/1999/xlink" width="512" height="512" viewBox="0 0 512 512"><defs><clipPath id="b"><rect width="512" height="512"/></clipPath></defs><g id="a" clip-path="url(#b)"><path d="M362,98.309A133.14,133.14,0,0,0,233.5,0H128.5A133.14,133.14,0,0,0,0,98.309H0V399.5a65.772,65.772,0,0,0,52.609,64.433V500H309.391V463.932A65.772,65.772,0,0,0,362,399.5V98.309Zm-206.678,76.55c0-14.177,11.5-31.935,25.678-31.935h0c14.179,0,25.678,17.758,25.678,31.935V258.14A13.777,13.777,0,0,1,192.9,271.916H169.1a13.777,13.777,0,0,1-13.779-13.776Zm-87.368-13.15a32.881,32.881,0,1,1,32.881,32.874A32.881,32.881,0,0,1,67.953,161.709ZM262.312,386.118a14.792,14.792,0,0,1-14.793,14.79H114.475a14.792,14.792,0,0,1-14.793-14.79v-89.4a14.792,14.792,0,0,1,14.793-14.79H247.519a14.792,14.792,0,0,1,14.793,14.79Zm-1.146-191.534a32.874,32.874,0,1,1,32.881-32.874A32.881,32.881,0,0,1,261.166,194.584Z" transform="translate(75 6)" fill="#93cfef" opacity="0.9"/></g></svg>